<svg viewBox="0 0 24 15" xmlns="http://www.w3.org/2000/svg">
<path d="M15.1967 0.606631C14.4215 0.606631 13.643 0.606631 12.8678 0.606631C11.5457 0.606632 10.2203 0.606632 8.89822 0.606632C7.83024 0.606632 6.75904 0.564813 5.7184 0.862368C4.65363 1.16797 3.67251 1.73412 2.87313 2.50133C2.07053 3.27176 1.47864 4.24002 1.12962 5.29353C0.770941 6.37277 0.722689 7.54047 0.926958 8.6551C1.12801 9.76007 1.63626 10.7669 2.32788 11.6419C3.57922 13.2246 5.58008 14.1349 7.58576 14.1365C8.27255 14.1382 8.95934 14.1365 9.64774 14.1365C10.9698 14.1365 12.2952 14.1365 13.6173 14.1365C14.8332 14.1365 16.046 14.1365 17.2619 14.1365C18.1176 14.1365 18.9877 14.1832 19.8257 13.9661C20.8905 13.6894 21.9022 13.0605 22.5874 12.1952C22.7852 11.9459 22.9718 11.6918 23.1278 11.4135C23.279 11.1433 23.3996 10.8522 23.5074 10.5611C23.7004 10.0303 23.7937 9.45447 23.8001 8.89153C23.813 7.7946 23.4752 6.64941 22.819 5.76157C22.6324 5.51066 22.4426 5.26618 22.2206 5.04744C21.9955 4.82548 21.7446 4.62925 21.4872 4.4459C21.0336 4.12421 20.5125 3.88617 19.9801 3.72694C19.1229 3.4712 18.2318 3.51302 17.3504 3.51302C16.1441 3.51302 14.9378 3.51302 13.7315 3.51302C12.3997 3.51302 11.0712 3.51302 9.73941 3.51302C9.02528 3.51302 8.31115 3.51302 7.59702 3.51302C6.60946 3.51302 5.67336 3.88296 4.94154 4.54723C4.03118 5.37395 3.59209 6.64298 3.74649 7.8525C3.90251 9.07006 4.63433 10.175 5.72322 10.7621C6.35211 11.1015 7.03247 11.2318 7.74016 11.2318C8.78885 11.2318 9.83753 11.2318 10.8862 11.2318C12.115 11.2318 13.3406 11.2318 14.5695 11.2318C14.7785 11.2318 14.9876 11.2318 15.2 11.2318C15.676 11.2318 16.1312 10.812 16.1103 10.3214C16.0894 9.82762 15.7082 9.41105 15.2 9.41105C14.9362 9.41105 14.6724 9.41105 14.4118 9.41105C13.7846 9.41105 13.1573 9.41105 12.53 9.41105C11.7805 9.41105 11.0277 9.41105 10.2782 9.41105C9.64773 9.41105 9.01402 9.41105 8.38353 9.41105C8.11331 9.41105 7.8431 9.41104 7.57289 9.41105C7.45065 9.41104 7.33002 9.403 7.20778 9.39014C7.28499 9.39979 7.36219 9.40944 7.43939 9.41909C7.18205 9.38692 6.93275 9.32097 6.69309 9.22608C6.76547 9.25664 6.83946 9.28559 6.91184 9.31615C6.66897 9.21482 6.44057 9.08615 6.23148 8.92531C6.29582 8.97356 6.36176 9.02342 6.42449 9.07328C6.21861 8.91244 6.03365 8.72747 5.87281 8.5216C5.92106 8.58593 5.97092 8.65188 6.02078 8.71461C5.86155 8.50391 5.73127 8.27712 5.62994 8.03425C5.6605 8.10663 5.68945 8.18061 5.72001 8.25299C5.6235 8.01173 5.55917 7.76404 5.527 7.50669C5.53665 7.5839 5.5463 7.6611 5.55595 7.7383C5.52861 7.49543 5.527 7.25256 5.55595 7.00809C5.5463 7.08529 5.53665 7.16249 5.527 7.2397C5.55917 6.98235 5.62511 6.73305 5.72001 6.4934C5.68945 6.56578 5.6605 6.63976 5.62994 6.71214C5.73127 6.46927 5.85994 6.24088 6.02078 6.03179C5.97253 6.09612 5.92267 6.16207 5.87281 6.22479C6.03365 6.01892 6.21861 5.83395 6.42449 5.67311C6.36015 5.72136 6.29421 5.77122 6.23148 5.82108C6.44218 5.66185 6.66897 5.53157 6.91184 5.43024C6.83946 5.4608 6.76547 5.48975 6.69309 5.52031C6.93435 5.42381 7.18205 5.35947 7.43939 5.3273C7.36219 5.33695 7.28499 5.3466 7.20778 5.35626C7.65975 5.30318 8.12779 5.33374 8.58136 5.33374C9.47563 5.33374 10.3699 5.33374 11.2642 5.33374C12.3547 5.33374 13.4452 5.33374 14.5389 5.33374C15.4621 5.33374 16.3886 5.33374 17.3118 5.33374C17.7042 5.33374 18.0983 5.33213 18.4924 5.33374C18.6822 5.33374 18.8687 5.3466 19.0569 5.37073C18.9797 5.36108 18.9025 5.35143 18.8253 5.34178C19.2001 5.39164 19.5652 5.48654 19.9158 5.62807C19.8434 5.59751 19.7694 5.56856 19.6971 5.538C20.0573 5.68598 20.3967 5.88059 20.7071 6.11381C20.6428 6.06556 20.5769 6.0157 20.5141 5.96584C20.8294 6.2071 21.1108 6.48857 21.3537 6.80543C21.3055 6.74109 21.2556 6.67515 21.2057 6.61242C21.4406 6.92445 21.6336 7.26222 21.7815 7.6225C21.751 7.55012 21.722 7.47613 21.6915 7.40376C21.833 7.75439 21.9279 8.1195 21.9778 8.49425C21.9681 8.41705 21.9585 8.33985 21.9488 8.26264C21.9955 8.6374 21.9955 9.01699 21.9488 9.39174C21.9585 9.31454 21.9681 9.23734 21.9778 9.16013C21.9279 9.53489 21.833 9.9 21.6915 10.2506C21.722 10.1783 21.751 10.1043 21.7815 10.0319C21.6336 10.3922 21.439 10.7315 21.2057 11.042C21.254 10.9776 21.3039 10.9117 21.3537 10.849C21.1125 11.1642 20.831 11.4457 20.5141 11.6885C20.5785 11.6403 20.6444 11.5904 20.7071 11.5406C20.3951 11.7754 20.0573 11.9684 19.6971 12.1164C19.7694 12.0858 19.8434 12.0569 19.9158 12.0263C19.5652 12.1679 19.2001 12.2628 18.8253 12.3126C18.9025 12.303 18.9797 12.2933 19.0569 12.2837C18.5551 12.3448 18.0372 12.319 17.5321 12.319C16.6282 12.319 15.7275 12.319 14.8236 12.319C13.717 12.319 12.6104 12.319 11.5071 12.319C10.5742 12.319 9.63808 12.319 8.70521 12.319C8.27416 12.319 7.83989 12.3287 7.40883 12.3158C7.20939 12.3094 7.01156 12.2949 6.81533 12.2692C6.89253 12.2788 6.96974 12.2885 7.04694 12.2981C6.55638 12.2322 6.07707 12.1067 5.61707 11.9234C5.68945 11.9539 5.76343 11.9829 5.83581 12.0134C5.34847 11.8156 4.89168 11.5551 4.47349 11.2366C4.53783 11.2848 4.60377 11.3347 4.6665 11.3846C4.25314 11.0677 3.88321 10.6978 3.56474 10.2828C3.613 10.3471 3.66286 10.4131 3.71272 10.4758C3.39425 10.0576 3.13369 9.60084 2.93586 9.11349C2.96642 9.18587 2.99537 9.25986 3.02593 9.33223C2.84257 8.87223 2.71711 8.39293 2.65117 7.90236C2.66082 7.97957 2.67047 8.05677 2.68012 8.13397C2.61578 7.62893 2.61578 7.11746 2.68012 6.6092C2.67047 6.68641 2.66082 6.76361 2.65117 6.84081C2.71711 6.35025 2.84257 5.87094 3.02593 5.41094C2.99537 5.48332 2.96642 5.55731 2.93586 5.62968C3.13369 5.14234 3.39425 4.68555 3.71272 4.26736C3.66446 4.3317 3.6146 4.39764 3.56474 4.46037C3.8816 4.04701 4.25153 3.67708 4.6665 3.35861C4.60217 3.40687 4.53622 3.45673 4.47349 3.50659C4.89168 3.18812 5.34847 2.92756 5.83581 2.72973C5.76343 2.76029 5.68945 2.78924 5.61707 2.8198C6.07707 2.63644 6.55638 2.51098 7.04694 2.44504C6.96974 2.45469 6.89254 2.46434 6.81533 2.47399C7.23995 2.41931 7.66618 2.42413 8.09241 2.42574C8.67787 2.42574 9.26654 2.42574 9.852 2.42574C10.6176 2.42574 11.38 2.42574 12.1456 2.42574C12.8243 2.42574 13.5063 2.42574 14.185 2.42574C14.5196 2.42574 14.8541 2.43217 15.1887 2.42574C15.1951 2.42574 15.1983 2.42574 15.2048 2.42574C15.6809 2.42574 16.136 2.00594 16.1151 1.51538C16.0846 1.02482 15.705 0.606631 15.1967 0.606631Z" />
</svg>
