<svg width="19" height="13" viewBox="0 0 19 13"  xmlns="http://www.w3.org/2000/svg">
<path fill-rule="evenodd" clip-rule="evenodd" d="M8.91554 3.70596C8.91554 3.06051 8.74646 2.50726 8.40935 2.04415C7.84751 1.28992 6.895 0.903474 5.54868 0.883789H0.214844V11.7726H5.18847C5.74926 11.7726 6.26805 11.7249 6.74798 11.6265C7.22791 11.527 7.64273 11.3457 7.99454 11.0795C8.30749 10.8474 8.56793 10.5614 8.77587 10.2226C9.10457 9.71084 9.2684 9.1317 9.2684 8.48625C9.2684 7.86048 9.12452 7.32795 8.83888 6.89075C8.55008 6.4525 8.12581 6.13236 7.56291 5.9293C7.93363 5.74281 8.21402 5.53561 8.40515 5.30975C8.74646 4.90569 8.91554 4.37006 8.91554 3.70596ZM2.41539 5.17689V2.77432H4.81818C5.34642 2.77432 5.78119 2.8313 6.12355 2.94423C6.51842 3.10792 6.71585 3.44256 6.71585 3.95126C6.71585 4.40711 6.56567 4.72621 6.26743 4.90649C5.96708 5.08676 5.57746 5.17689 5.09963 5.17689H2.41539ZM2.41539 6.98027V9.88429H5.09543C5.57431 9.88429 5.94817 9.82006 6.21387 9.69263C6.698 9.45434 6.93954 9.00262 6.93954 8.33334C6.93954 7.76559 6.7064 7.37708 6.23697 7.16469C5.97443 7.04658 5.60582 6.98442 5.13324 6.98027H2.41539ZM11.6281 2.74578H16.3581V1.39064H11.6281V2.74578ZM17.3505 5.07565C16.9808 4.53277 16.5114 4.13493 15.9411 3.88421C15.3719 3.63245 14.7324 3.50605 14.0214 3.50605C12.8253 3.50605 11.8539 3.88006 11.103 4.6229C10.3542 5.36782 9.97929 6.43805 9.97929 7.83359C9.97929 9.32134 10.3931 10.3968 11.2258 11.0567C12.0544 11.7177 13.0132 12.0472 14.1002 12.0472C15.416 12.0472 16.44 11.6555 17.1709 10.8733C17.6393 10.3802 17.9039 9.89427 17.9617 9.41769H15.7826C15.6565 9.65391 15.5095 9.83833 15.3425 9.97198C15.039 10.2175 14.6431 10.3408 14.159 10.3408C13.699 10.3408 13.3073 10.2393 12.9817 10.0372C12.444 9.71297 12.1626 9.14625 12.1269 8.33918H18.074C18.0835 7.644 18.0604 7.1094 18.0026 6.74057C17.9039 6.10962 17.6876 5.5543 17.3505 5.07565ZM12.1798 6.94844C12.2576 6.4242 12.4476 6.00875 12.749 5.70208C13.0504 5.39541 13.4768 5.24208 14.0229 5.24208C14.527 5.24208 14.9481 5.38609 15.2905 5.67514C15.6286 5.96627 15.8197 6.38898 15.8586 6.94844H12.1798Z" />
</svg>
