<svg width="251" height="121" viewBox="0 0 251 121" fill="none" xmlns="http://www.w3.org/2000/svg">
<path d="M77.5259 78.7507H93.4556V83.9461H85.8777V120.451H77.5259V78.7507Z" fill="#F7F7FA"/>
<path d="M102.899 104.796L104.331 83.9461H104.81L106.241 104.796H102.899ZM93.6504 120.451H101.828L102.601 109.376H106.539L107.317 120.451H115.49L111.135 78.7507H98.0061L93.6504 120.451Z" fill="#F7F7FA"/>
<path d="M127.452 105.856V113.717C127.452 114.777 128.274 115.084 128.753 115.084C129.541 115.084 130.089 114.435 130.089 113.717V104.01C130.089 102.711 129.849 101.275 126.733 101.275H123.343V96.6953H126.87C129.233 96.6953 130.089 96.1484 130.089 93.5849V85.3133C130.089 84.5956 129.541 83.9461 128.753 83.9461C128.274 83.9461 127.452 84.2196 127.452 85.3133V92.1152H119.097V86.202C119.097 83.2967 119.439 78.7507 125.295 78.7507H132.212C138.067 78.7507 138.444 83.2967 138.444 86.202V92.8671C138.444 97.4131 135.259 98.6436 132.76 98.541V98.9512C138.375 98.8145 138.444 103.121 138.444 104.591V112.999C138.444 115.939 138.067 120.451 132.212 120.451H125.295C119.439 120.451 119.097 115.939 119.097 112.999V105.856H127.452Z" fill="#F7F7FA"/>
<path d="M143.922 78.7507H163.269V120.451H154.914V83.9461H152.277V120.451H143.922V78.7507Z" fill="#F7F7FA"/>
<path d="M177.103 101.686V83.9461H178.199C179.089 83.9461 179.74 84.6981 179.74 86.0311V99.6006C179.74 100.934 179.089 101.686 178.199 101.686H177.103ZM168.748 120.451H177.103V106.266H181.897C187.719 106.266 188.095 101.754 188.095 98.8145V86.202C188.095 83.2967 187.719 78.7507 181.897 78.7507H168.748V120.451Z" fill="#F7F7FA"/>
<path d="M204.566 113.717C204.566 114.435 204.018 115.084 203.231 115.084C202.751 115.084 201.929 114.777 201.929 113.717V85.3133C201.929 84.2196 202.751 83.9461 203.231 83.9461C204.018 83.9461 204.566 84.5956 204.566 85.3133V113.717ZM193.574 112.999C193.574 115.939 193.951 120.451 199.772 120.451H206.723C212.545 120.451 212.921 115.939 212.921 112.999V86.202C212.921 83.2967 212.545 78.7507 206.723 78.7507H199.772C193.951 78.7507 193.574 83.2967 193.574 86.202V112.999Z" fill="#F7F7FA"/>
<path d="M240.111 78.7507H251V120.451H242.645V94.3027H242.337L238.022 120.451H231.345L227.064 94.3027H226.756V120.451H218.401V78.7507H229.256L234.7 108.077L240.111 78.7507Z" fill="#F7F7FA"/>
<path d="M66.6982 21.7385C64.1402 10.5616 57.73 1.46975 56.8465 0C55.4494 2.08499 50.3369 10.1173 47.7379 19.0041C44.8992 28.9506 44.4814 37.769 45.4607 46.4166C46.4333 55.0983 50.1075 64.0193 50.1075 64.0193C52.0594 68.6678 54.9837 73.6923 56.8876 76.1533C59.6784 72.5302 66.0921 61.7293 68.0918 47.6471C69.2047 39.7857 69.2526 32.9154 66.6982 21.7385ZM56.8465 73.3505C55.5898 70.9921 53.6379 66.5145 53.453 59.5418C53.4051 52.8424 56.1 47.066 56.8876 45.8697C57.5896 47.066 59.9112 52.0905 60.1886 58.9607C60.3769 65.66 58.1443 70.9579 56.8465 73.3505ZM65.9551 40.7085C65.8592 44.981 65.349 49.4928 64.6984 52.193C64.9312 47.5445 64.3731 41.0161 63.3047 35.8891C62.2363 30.7963 59.2127 22.2512 56.7985 18.3205C54.5694 22.0803 51.8231 29.4632 50.3849 35.8549C48.9398 42.2466 48.8987 50.0055 48.8987 52.3298C48.5152 50.3815 47.5564 43.3746 47.8269 36.3676C48.0529 30.5912 49.4089 24.6097 50.152 21.8753C52.9873 12.7492 56.1959 6.90438 56.7985 5.9815C57.4012 6.90438 61.4419 14.1164 63.5375 21.6702C65.6229 29.224 66.0441 36.4702 65.9551 40.7085Z" fill="#F7F7FA"/>
<path d="M61.185 78.7514H41.7385V91.774C41.7557 91.774 41.7694 91.7398 41.7865 91.7398C46.3682 87.1597 53.7988 87.1597 58.3839 91.7398C62.9656 96.2858 62.9656 103.703 58.3839 108.283C58.3634 108.317 58.3429 108.317 58.3223 108.351C58.2984 108.351 58.2744 108.386 58.2538 108.42C53.6824 112.931 47.7105 115.187 41.7385 115.187C35.7392 115.187 29.7399 112.931 25.165 108.351C17.0974 100.319 16.1421 87.8433 22.2921 78.7514C23.1207 77.5209 24.0761 76.3587 25.165 75.265C29.7399 70.6849 35.7392 68.429 41.7385 68.429V37.12C18.6863 37.12 0 55.7481 0 78.7514C0 101.755 18.6863 120.417 41.7385 120.417C53.7578 120.417 64.5853 115.324 72.2009 107.223V78.7514H61.185Z" fill="#F7F7FA"/>
</svg>
