<svg width="183" height="70" viewBox="0 0 183 70" fill="none" xmlns="http://www.w3.org/2000/svg">
<path d="M7.65211 55.3809H0.439789C0.196269 55.3809 0 55.553 0 55.7626V65.341C0 65.5688 0.18173 65.7275 0.439789 65.7275H1.84155C2.10445 65.7275 2.28134 65.5676 2.28134 65.341V57.3109H7.65332C7.90654 57.3109 8.09311 57.1546 8.09311 56.9317V55.7613C8.0919 55.5517 7.89321 55.3809 7.65211 55.3809ZM37.742 55.1628C35.6836 55.1628 34.4442 55.9952 33.9935 56.3671C33.8833 56.1151 33.733 55.748 33.6761 55.6353C33.6264 55.5263 33.5162 55.3809 33.2569 55.3809H32.1726C32.0126 55.3809 31.8915 55.4766 31.8503 55.622C31.8357 55.6475 31.8297 55.6777 31.8297 55.702V69.1537C31.8297 69.3403 32.0005 69.4918 32.2137 69.4918H33.7524C33.9644 69.4918 34.1365 69.3403 34.1365 69.1537V65.6693C34.5254 65.7651 35.4522 65.942 36.9497 65.942C40.8945 65.942 42.5082 64.3669 42.5082 60.5154C42.5082 56.7112 41.1271 55.1628 37.742 55.1628ZM36.9569 64.0083C35.6279 64.0083 34.5036 63.829 34.1365 63.7624V58.0306C34.3776 57.8476 35.428 57.1364 37.0951 57.1364C38.9414 57.1364 40.0064 57.7022 40.0064 60.5954C40.0064 63.2378 39.3195 64.0083 36.9569 64.0083ZM177.729 55.1628C176.16 55.1628 174.576 55.33 174.072 55.4257C173.844 55.4657 173.708 55.616 173.708 55.8546V56.9983C173.708 57.3364 173.93 57.4236 174.132 57.3775C174.621 57.277 176.145 57.0916 177.612 57.0916C180.057 57.0916 180.663 57.529 180.667 59.3306C180.22 59.2857 179.018 59.1646 177.687 59.1646C174.1 59.1646 172.709 60.1168 172.709 62.5726C172.709 65.0345 173.899 65.948 177.096 65.948C179.084 65.948 180.366 65.1448 180.8 64.8213C180.885 64.9933 181.02 65.2623 181.127 65.4767C181.207 65.6391 181.355 65.7287 181.549 65.7287H182.634C182.833 65.7287 182.975 65.5894 182.975 65.3822V59.3996C182.975 55.874 180.97 55.1628 177.729 55.1628ZM180.667 63.2014C180.394 63.3832 179.296 64.0144 177.571 64.0144C175.486 64.0144 175.15 63.6618 175.15 62.5375C175.15 61.4423 175.436 60.9625 178.108 60.9625C179.284 60.9625 180.3 61.0631 180.665 61.0994V63.2014H180.667ZM77.385 55.3809H75.65C75.478 55.3809 75.2405 55.4185 75.1339 55.7092C75.0443 55.9564 73.0828 61.3575 72.0178 64.2773C71.1043 61.6943 69.0713 55.9152 68.9962 55.7092C68.8944 55.4185 68.6534 55.3809 68.4825 55.3809H66.7113C66.5962 55.3809 66.5004 55.4318 66.4387 55.5154C66.3829 55.6075 66.3781 55.7177 66.4229 55.8292C66.5283 56.0957 68.7333 61.836 69.6759 64.2858L70.0866 65.3616C70.1823 65.6136 70.358 65.7287 70.6451 65.7287H71.4932L71.3708 66.0522C71.0086 67.0154 70.8099 67.2625 69.8431 67.2625H69.5232C69.3015 67.2625 69.1416 67.4443 69.1416 67.7072V69.1077C69.1416 69.3658 69.3027 69.5475 69.5232 69.5475H69.8879C71.6531 69.5475 72.5909 68.9066 73.2257 67.2577C73.2257 67.2577 77.5497 56.1357 77.6697 55.8231C77.7157 55.7117 77.7072 55.5966 77.6442 55.5154C77.5921 55.4318 77.5001 55.3809 77.385 55.3809ZM147.239 55.3809H138.018C137.816 55.3809 137.658 55.5324 137.658 55.7298V65.3822C137.658 65.5785 137.816 65.7287 138.018 65.7287H139.563C139.771 65.7287 139.939 65.5724 139.939 65.3822V57.2734H145.325V65.3822C145.325 65.5724 145.491 65.7287 145.708 65.7287H147.239C147.452 65.7287 147.601 65.5724 147.601 65.3822V55.7298C147.6 55.5324 147.451 55.3809 147.239 55.3809ZM111.731 55.3809H102.506C102.305 55.3809 102.15 55.5324 102.15 55.7298V65.3822C102.15 65.5724 102.305 65.7287 102.506 65.7287H104.05C104.261 65.7287 104.429 65.5724 104.429 65.3822V57.2734H109.808V65.3822C109.808 65.5724 109.982 65.7287 110.191 65.7287H111.731C111.943 65.7287 112.094 65.5785 112.094 65.3822V55.7298C112.094 55.5324 111.943 55.3809 111.731 55.3809Z" fill="#F7F7FA"/>
<path d="M8.7704 0C3.60195 0 0.714844 2.87015 0.714844 8.05677V41.4251H28.3284C30.6339 41.4251 31.7849 40.2717 31.7849 37.9698V11.5109H53.6545C55.9491 11.506 57.0928 10.3563 57.0928 8.06162V0.00121319H8.7704V0ZM74.6215 11.5109H78.1168V11.5157C79.8565 11.5157 80.7555 12.09 81.2232 13.8322H81.2328L84.6082 26.1221H70.581L74.6215 11.5109ZM67.4491 0L54.7945 41.4251H66.3454L68.2899 34.386H86.8811L87.9981 38.4423C88.7275 40.6509 89.9233 41.4251 92.0774 41.4251H121.92L110.788 8.93756H110.784C108.378 1.92636 105.423 0 96.2184 0H67.4491ZM126.62 0V8.07131C126.627 10.3587 127.777 11.5097 130.071 11.5097H149.398C150.801 11.5097 151.935 12.4317 151.935 14.0406C151.935 15.6507 150.801 16.5763 149.398 16.5763H135.826V24.8439H149.398C150.801 24.8439 151.935 25.772 151.935 27.3821C151.935 28.991 150.801 29.9179 149.398 29.9179H126.621V37.9771C126.621 40.2717 127.771 41.4251 130.073 41.4251H173.795C179.552 41.4251 183 37.9734 183 33.3684V28.8457C183 23.7051 179.326 21.1681 176.074 20.6835V19.7009C179.326 19.2211 183 16.7048 183 11.5666V8.05798C183 2.87984 180.132 0.00121319 174.946 0.00121319H126.62V0Z" fill="#F7F7FA"/>
</svg>
