<svg width="16" height="16" viewBox="0 0 16 16"  xmlns="http://www.w3.org/2000/svg">
<path fill-rule="evenodd" clip-rule="evenodd" d="M7.38552 0.555856C7.20492 0.555775 7.03757 0.5557 6.88201 0.555944V0.553711C5.21754 0.555572 4.89827 0.566735 4.0744 0.603946C3.20366 0.643949 2.73088 0.789073 2.41608 0.911871C1.99931 1.07411 1.70162 1.26761 1.38904 1.58019C1.07646 1.89277 0.882591 2.19046 0.720721 2.60723C0.598481 2.92203 0.452984 3.39462 0.413168 4.26537C0.370375 5.20682 0.361816 5.48814 0.361816 7.87302C0.361816 10.2579 0.370375 10.5407 0.413168 11.4822C0.452798 12.3529 0.598481 12.8255 0.720721 13.1399C0.882963 13.5569 1.07646 13.8538 1.38904 14.1664C1.70162 14.479 1.99931 14.6725 2.41608 14.8344C2.73107 14.9566 3.20366 15.1021 4.0744 15.1423C5.01585 15.1851 5.29848 15.1944 7.68317 15.1944C10.0677 15.1944 10.3505 15.1851 11.2919 15.1423C12.1627 15.1025 12.6356 14.9573 12.9501 14.8345C13.367 14.6727 13.6638 14.4792 13.9764 14.1666C14.289 13.8542 14.4828 13.5574 14.6447 13.1407C14.7669 12.8262 14.9124 12.3537 14.9522 11.4829C14.995 10.5415 15.0043 10.2586 15.0043 7.87525C15.0043 5.49186 14.995 5.20905 14.9522 4.2676C14.9126 3.39685 14.7669 2.92427 14.6447 2.60983C14.4825 2.19306 14.289 1.89537 13.9764 1.58279C13.664 1.27022 13.3669 1.07672 12.9501 0.914848C12.6353 0.792609 12.1627 0.647112 11.2919 0.607295C10.3503 0.564502 10.0677 0.555944 7.68317 0.555944L7.38552 0.555856ZM11.3786 3.11011C11.3786 2.51826 11.8587 2.03879 12.4503 2.03879V2.03842C13.042 2.03842 13.522 2.51845 13.522 3.11011C13.522 3.70178 13.042 4.1818 12.4503 4.1818C11.8587 4.1818 11.3786 3.70178 11.3786 3.11011ZM7.68248 3.29134C5.14976 3.29143 3.09635 5.34491 3.09635 7.87765C3.09635 10.4104 5.14986 12.463 7.68266 12.463C10.2155 12.463 12.2682 10.4104 12.2682 7.87765C12.2682 5.34485 10.2153 3.29134 7.68248 3.29134ZM10.6598 7.87616C10.6598 6.23197 9.32691 4.89924 7.68291 4.89924C6.03872 4.89924 4.70599 6.23197 4.70599 7.87616C4.70599 9.52016 6.03872 10.8531 7.68291 10.8531C9.32691 10.8531 10.6598 9.52016 10.6598 7.87616Z" />
</svg>
