<svg width="305" height="78" viewBox="0 0 305 78" fill="none" xmlns="http://www.w3.org/2000/svg">
<g clip-path="url(#clip0_1_8)">
<rect width="305" height="77.639" fill="white"/>
<path fill-rule="evenodd" clip-rule="evenodd" d="M305 0H0V77.639H305V0ZM49.7029 21.3184H43.0841V55.8471H49.7029V21.3184ZM59.387 30.9759V55.847H65.3342V37.8881C66.0284 37.0897 66.8818 36.4452 67.8397 35.996C68.7976 35.5468 69.8389 35.3028 70.8966 35.2797C72.9051 35.2797 73.9615 36.3296 73.9615 39.6814V55.847H79.9087V38.8206C79.9087 33.7603 77.5089 30.4998 72.5269 30.4998C69.5989 30.4998 67.0557 32.1236 64.8517 33.656V30.9759H59.387ZM89.8793 30.9753V22.7523H95.8591V30.9753H100.75V35.7552H95.8591V49.8144C95.8591 51.1577 96.5112 51.536 98.0176 51.536C98.9429 51.4771 99.8591 51.3175 100.75 51.0599V55.9376C99.1943 56.1627 97.6262 56.2911 96.0547 56.3224C91.64 56.3224 89.9119 54.1183 89.9119 50.5839V35.7552H86.4623V30.9753H89.8793ZM127.089 41.9234V44.3427H112.032C112.162 49.5594 114.431 51.5157 117.209 51.5157C119.987 51.5157 121.291 50.2963 122.752 48.5748L127.069 51.2549C124.787 54.7893 121.428 56.3217 116.635 56.3217C110.167 56.3217 106.091 51.3006 106.091 43.4101C106.091 35.5197 110.167 30.4986 116.922 30.4986C123.443 30.4464 127.089 35.9501 127.089 41.9234ZM116.831 34.8937C113.949 34.8937 112.129 36.9022 112.032 40.3453H121.624C121.526 36.9022 119.713 34.8937 116.831 34.8937ZM134.47 55.8466V30.9755H139.941V35.2141H140.032C141.473 32.2471 143.488 30.5712 147.036 30.4799V36.74C146.685 36.6987 146.332 36.6834 145.979 36.6944C143.006 36.6944 140.417 40.0918 140.417 40.7113V55.8466H134.47ZM153.7 30.9759V55.847H159.647V37.8881C160.341 37.0891 161.194 36.4442 162.152 35.9949C163.11 35.5457 164.152 35.302 165.21 35.2797C167.218 35.2797 168.274 36.3296 168.274 39.6814V55.847H174.222V38.8206C174.222 33.7603 171.822 30.4998 166.833 30.4998C163.912 30.4998 161.369 32.1236 159.165 33.656V30.9759H153.7ZM180.841 43.4114C180.841 51.3018 184.916 56.323 191.672 56.323C198.428 56.323 202.51 51.3018 202.51 43.4114C202.51 35.521 198.434 30.4998 191.672 30.4998C184.91 30.4998 180.841 35.521 180.841 43.4114ZM196.563 43.4114C196.563 48.9608 194.978 51.5431 191.672 51.5431C188.366 51.5431 186.781 48.9347 186.781 43.4114C186.781 37.8881 188.366 35.2797 191.672 35.2797C194.978 35.2797 196.563 37.8881 196.563 43.4114ZM209.22 30.9755V55.8466H215.168V40.7113C215.168 40.0918 217.756 36.6944 220.73 36.6944C221.083 36.6834 221.436 36.6987 221.786 36.74V30.4799C218.239 30.5712 216.224 32.2471 214.783 35.2141H214.692V30.9755H209.22ZM228.451 55.8463V30.9752H233.87V33.6553C236.12 31.5947 237.946 30.4991 241.35 30.4991C242.615 30.4434 243.869 30.7572 244.958 31.4022C246.048 32.0472 246.926 32.9955 247.486 34.1313C248.571 32.9438 249.899 32.0045 251.38 31.3776C252.861 30.7508 254.46 30.4511 256.068 30.4991C258.676 30.4991 262.204 32.0251 262.204 37.9592V55.8463H256.276V38.4743C256.276 36.4659 255.461 35.3703 253.309 35.2725C251.77 35.2725 249.71 36.6615 248.321 37.9526V55.8463H242.374V38.4743C242.374 36.4659 241.558 35.3703 239.4 35.2725C237.868 35.2725 235.807 36.6615 234.418 37.9526V55.8463H228.451ZM262.391 27.1701C262.816 27.4401 263.311 27.5774 263.814 27.5645C264.144 27.5664 264.471 27.5018 264.775 27.3745C265.079 27.2472 265.354 27.0598 265.585 26.8236C265.815 26.5874 265.995 26.3072 266.114 25.9997C266.233 25.6923 266.29 25.3639 266.279 25.0343C266.279 24.5312 266.129 24.0395 265.848 23.6221C265.567 23.2047 265.168 22.8806 264.701 22.6912C264.235 22.5017 263.723 22.4556 263.231 22.5586C262.738 22.6617 262.288 22.9092 261.937 23.2696C261.585 23.63 261.35 24.0869 261.26 24.5819C261.169 25.0769 261.229 25.5876 261.431 26.0486C261.632 26.5096 261.966 26.9001 262.391 27.1701ZM262.195 22.6116C262.673 22.289 263.237 22.1155 263.814 22.1129C264.199 22.1121 264.579 22.1869 264.935 22.3333C265.291 22.4796 265.614 22.6946 265.886 22.9659C266.159 23.2371 266.375 23.5594 266.523 23.9143C266.671 24.2692 266.748 24.6498 266.749 25.0343C266.749 25.6116 266.578 26.1759 266.257 26.656C265.937 27.1361 265.481 27.5106 264.948 27.7321C264.415 27.9536 263.828 28.0122 263.262 27.9005C262.696 27.7888 262.175 27.5119 261.766 27.1046C261.357 26.6974 261.078 26.178 260.963 25.6122C260.849 25.0464 260.905 24.4594 261.124 23.9254C261.343 23.3913 261.716 22.9342 262.195 22.6116ZM263.853 25.2299H263.201L263.182 26.7754H262.705V23.2997H264.042C264.825 23.2997 265.17 23.6127 265.17 24.2648C265.182 24.497 265.106 24.7252 264.958 24.904C264.809 25.0828 264.599 25.1991 264.368 25.2299L265.34 26.7754H264.799L263.853 25.2299ZM263.201 23.691V24.8387H263.749L263.79 24.8387C264.236 24.8393 264.72 24.8399 264.72 24.2518C264.72 23.7627 264.323 23.691 263.958 23.691H263.201Z" fill="#E3000F"/>
</g>
<defs>
<clipPath id="clip0_1_8">
<rect width="305" height="77.639" fill="white"/>
</clipPath>
</defs>
</svg>
