<svg width="9" height="9" viewBox="0 0 9 9"  xmlns="http://www.w3.org/2000/svg">
<path  clip-rule="evenodd" d="M5.41635 0.0212886C5.14022 0.0231962 4.91791 0.248591 4.91982 0.524722C4.92173 0.800852 5.14712 1.02315 5.42326 1.02125L7.28408 1.00839L4.10881 4.1836C3.91354 4.37886 3.91354 4.69544 4.10881 4.8907C4.30407 5.08595 4.62065 5.08595 4.81591 4.8907L7.99118 1.71548L7.97833 3.57627C7.97642 3.8524 8.19872 4.07779 8.47486 4.0797C8.751 4.08161 8.97639 3.8593 8.9783 3.58317L8.99958 0.503445C9.0005 0.369645 8.94776 0.241057 8.85314 0.146444C8.75853 0.0518311 8.62994 -0.000912153 8.49614 1.19415e-05L5.41635 0.0212886ZM1 1.50014C1 1.224 1.22386 1.00015 1.5 1.00015H3C3.27614 1.00015 3.5 0.776293 3.5 0.500156C3.5 0.224018 3.27614 0.000164753 3 0.000164753H1.5C0.671573 0.000164753 0 0.671725 0 1.50014V7.50003C0 8.32844 0.671573 9 1.5 9H7.5C8.32843 9 9 8.32844 9 7.50003V6.00005C9 5.72392 8.77614 5.50006 8.5 5.50006C8.22386 5.50006 8 5.72392 8 6.00005V7.50003C8 7.77616 7.77614 8.00002 7.5 8.00002H1.5C1.22386 8.00002 1 7.77616 1 7.50003V1.50014Z" />
</svg>
