<svg width="271" height="83" viewBox="0 0 271 83" fill="none" xmlns="http://www.w3.org/2000/svg">
<path d="M74.9601 8.68863C68.9607 5.64958 62.6071 3.37577 56.0437 1.9211C55.9096 1.89778 55.774 1.92983 55.6588 2.01291C55.5656 2.09454 55.4912 2.22429 55.4912 2.36567V43.7609C55.4912 47.0682 52.9419 49.6612 49.6697 49.6612C46.4032 49.6612 43.8481 47.0682 43.8481 43.7609V0.606361C43.8481 0.362946 43.6673 0.167618 43.4312 0.157417C41.688 0.052475 40.0467 2.28882e-05 38.4274 2.28882e-05C33.7748 2.28882e-05 29.0974 0.399391 24.522 1.19086C24.3049 1.23167 24.146 1.4197 24.146 1.63251V41.9112C24.146 55.7961 35.5967 67.1099 49.6697 67.1099C63.7455 67.1099 75.2021 55.7961 75.2021 41.9112V9.08509C75.2021 8.91455 75.1088 8.75859 74.9601 8.68863Z" fill="#F7F7FA"/>
<path d="M73.1384 57.9774C72.8556 57.6203 72.1837 57.648 71.882 58.2033C67.4728 66.4532 57.8775 71.1014 48.2794 70.7327C27.2582 69.9208 19.9718 54.9719 19.9718 41.1672C19.9718 41.1672 19.9718 31.448 19.9718 38.5523C19.9718 45.6623 19.9718 2.72788 19.9718 2.72788C19.9718 2.59379 19.9163 2.46405 19.7954 2.38534C19.689 2.3008 19.5432 2.27601 19.412 2.30079C12.7684 3.78898 6.32153 6.08468 0.241963 9.1281C0.09329 9.20827 0 9.34673 0 9.51727V43.1873C1.72723 75.2133 35.4906 82.714 36.6873 82.714C37.7251 82.7038 62.9776 79.7041 72.1152 61.4479C72.1633 61.3298 72.2216 61.2118 72.2843 61.0937C72.3761 60.9013 72.4519 60.7235 72.5335 60.553C72.6807 60.2483 72.825 59.9437 72.9664 59.6303C72.9431 59.6609 72.9052 59.6959 72.8862 59.7323C73.1136 59.1799 73.2244 58.8432 73.2317 58.8126C73.3556 58.3841 73.2535 58.1231 73.1384 57.9774Z" fill="#F7F7FA"/>
<path d="M100.732 19.4369H97.5146V23.1843H100.732V19.4369Z" fill="#F7F7FA"/>
<path d="M100.724 31.2746H108.461V34.2058H97.5173V19.8793H100.724V31.2746Z" fill="#F7F7FA"/>
<path d="M115.225 22.8083C114.675 23.0503 114.21 23.3797 113.835 23.7922C113.457 24.2076 113.168 24.69 112.968 25.2454C112.769 25.8036 112.664 26.4012 112.664 27.044C112.664 27.6853 112.769 28.2873 112.968 28.8485C113.168 29.4126 113.459 29.8994 113.844 30.3148C114.23 30.7273 114.693 31.0494 115.233 31.2856C115.773 31.5202 116.389 31.6397 117.074 31.6397C117.771 31.6397 118.395 31.5173 118.941 31.2753C119.491 31.0305 119.956 30.6996 120.333 30.2813C120.709 29.863 120.994 29.3732 121.187 28.8164C121.378 28.2611 121.479 27.6678 121.479 27.044C121.479 26.3852 121.376 25.7774 121.18 25.2148C120.978 24.6492 120.692 24.1638 120.313 23.7484C119.933 23.3359 119.468 23.0152 118.92 22.7864C118.373 22.5619 117.755 22.4468 117.074 22.4468C116.389 22.4468 115.773 22.5678 115.225 22.8083ZM120.172 20.1468C121.112 20.5257 121.915 21.049 122.575 21.7209C123.241 22.387 123.759 23.1756 124.129 24.0808C124.496 24.9859 124.686 25.9741 124.686 27.044C124.686 28.0687 124.496 29.0336 124.129 29.9388C123.759 30.8439 123.234 31.6339 122.566 32.3117C121.897 32.9895 121.093 33.5229 120.163 33.915C119.229 34.3071 118.202 34.5039 117.074 34.5039C115.961 34.5039 114.942 34.3159 114.016 33.9383C113.089 33.5594 112.29 33.0361 111.61 32.3642C110.932 31.698 110.407 30.9051 110.037 29.9927C109.67 29.0802 109.48 28.0978 109.48 27.044C109.48 26.0179 109.67 25.0471 110.037 24.1347C110.407 23.2222 110.932 22.4308 111.61 21.7617C112.29 21.0912 113.089 20.5592 114.016 20.1686C114.942 19.778 115.961 19.5827 117.074 19.5827C118.202 19.5827 119.234 19.7722 120.172 20.1468Z" fill="#F7F7FA"/>
<path d="M134.899 31.467C136.308 31.467 137.015 30.9044 137.015 29.7777C137.015 29.2384 136.829 28.8273 136.458 28.5504C136.088 28.2691 135.561 28.1306 134.88 28.1306H131.112V31.467H134.899ZM134.386 25.523C134.927 25.523 135.349 25.3933 135.657 25.128C135.964 24.8656 136.117 24.5042 136.117 24.0479C136.117 23.0947 135.502 22.6166 134.276 22.6166H131.112V25.523H134.386ZM137.945 20.9272C138.805 21.6269 139.237 22.5816 139.237 23.7914C139.237 24.3919 139.113 24.9254 138.863 25.3948C138.613 25.867 138.276 26.2154 137.848 26.4427V26.6337C138.544 26.864 139.102 27.2721 139.525 27.8639C139.946 28.4571 140.153 29.1436 140.153 29.9278C140.153 30.5108 140.054 31.0647 139.849 31.5865C139.642 32.1054 139.321 32.5558 138.882 32.9406C138.451 33.3269 137.897 33.633 137.23 33.8618C136.555 34.0892 135.765 34.2058 134.858 34.2058H127.926V19.8793H134.255C135.852 19.8793 137.084 20.2291 137.945 20.9272Z" fill="#F7F7FA"/>
<path d="M152.496 28.5387L150.597 23.0874H150.382L148.458 28.5387H152.496ZM158.183 34.2058H154.634L153.547 31.3592H147.409L146.339 34.2058H142.855L148.735 19.8589H152.263L158.183 34.2058Z" fill="#F7F7FA"/>
<path d="M170.08 22.8622C169.432 22.6261 168.707 22.5109 167.908 22.5109C167.213 22.5109 166.585 22.6203 166.022 22.8418C165.457 23.0619 164.974 23.3767 164.573 23.7834C164.18 24.1872 163.872 24.6711 163.657 25.2264C163.442 25.7832 163.336 26.3852 163.336 27.044C163.336 27.7247 163.45 28.3456 163.667 28.9009C163.89 29.4577 164.197 29.93 164.6 30.325C164.999 30.7171 165.474 31.0217 166.031 31.2433C166.588 31.4634 167.197 31.5742 167.865 31.5742C168.679 31.5742 169.437 31.4342 170.146 31.1587C170.85 30.8803 171.485 30.4781 172.036 29.9504L173.857 32.1936C172.229 33.7314 170.178 34.5039 167.698 34.5039C166.588 34.5039 165.566 34.3275 164.639 33.9806C163.712 33.6308 162.919 33.1308 162.257 32.4822C161.593 31.8365 161.081 31.0538 160.708 30.1428C160.335 29.2289 160.154 28.2115 160.154 27.0863C160.154 26.0601 160.332 25.0908 160.695 24.1755C161.059 23.2674 161.584 22.4672 162.268 21.7836C162.951 21.0985 163.778 20.5592 164.744 20.1686C165.718 19.778 166.811 19.5827 168.04 19.5827C169.152 19.5827 170.168 19.7503 171.102 20.084C172.026 20.4164 172.851 20.9061 173.575 21.5489L171.806 23.8781C171.302 23.4365 170.732 23.0983 170.08 22.8622Z" fill="#F7F7FA"/>
<path d="M180.929 25.4807H187.195V19.8793H190.422V34.2058H187.195V28.4528H180.929V34.2058H177.702V19.8793H180.929V25.4807Z" fill="#F7F7FA"/>
<path d="M205.893 22.7638H198.353V25.4589H205.084V28.2603H198.353V31.3183H206.263V34.2058H195.186V19.8793H205.893V22.7638Z" fill="#F7F7FA"/>
<path d="M216.103 30.9732H216.316L219.991 19.8796H223.67L217.984 34.2455H214.2L208.509 19.8796H212.251L216.103 30.9732Z" fill="#F7F7FA"/>
<path d="M234.135 22.7441C233.433 22.5313 232.711 22.4249 231.953 22.4249C231.018 22.4249 230.347 22.5517 229.946 22.7966C229.547 23.0473 229.347 23.3928 229.347 23.8359C229.347 24.2498 229.494 24.5574 229.796 24.7658C230.098 24.9713 230.57 25.1171 231.23 25.2031L233.324 25.4815C234.89 25.6972 236.07 26.1768 236.845 26.923C237.616 27.6722 238.005 28.6532 238.005 29.8659C238.005 30.5641 237.874 31.1996 237.602 31.7666C237.33 32.3365 236.937 32.8262 236.411 33.2314C235.898 33.6366 235.248 33.9486 234.468 34.173C233.694 34.3931 232.806 34.5039 231.808 34.5039C230.626 34.5039 229.547 34.3815 228.578 34.1395C227.611 33.8961 226.661 33.4705 225.734 32.8568L227.084 30.2288C227.879 30.7273 228.678 31.0815 229.476 31.2958C230.271 31.5115 231.117 31.6164 232 31.6164C232.942 31.6164 233.641 31.4736 234.108 31.1908C234.568 30.9051 234.797 30.5218 234.797 30.0364C234.797 29.621 234.644 29.296 234.331 29.0525C234.017 28.8077 233.498 28.6371 232.771 28.5395L230.57 28.2611C229.171 28.076 228.086 27.6402 227.32 26.9566C226.546 26.2744 226.164 25.2832 226.164 23.9831C226.164 23.2718 226.307 22.6421 226.579 22.0941C226.859 21.546 227.248 21.0869 227.745 20.7152C228.247 20.3435 228.849 20.0607 229.551 19.8683C230.257 19.6774 231.037 19.5827 231.892 19.5827C233.048 19.5827 234.108 19.7299 235.074 20.0301C236.043 20.3304 236.895 20.7851 237.619 21.3973L236.04 23.6843C235.472 23.2718 234.838 22.9599 234.135 22.7441Z" fill="#F7F7FA"/>
<path d="M245.202 25.3306L246.76 25.1601L250.804 19.8793H254.754L249.434 26.571L255.273 34.2058H251.146L246.781 28.0898H245.202V34.2058H242.039V19.8793H245.202V25.3306Z" fill="#F7F7FA"/>
<path d="M263.778 26.2518H263.987L267.194 19.8793H271L265.439 29.4133V34.2058H262.231V29.4133L256.675 19.8793H260.526L263.778 26.2518Z" fill="#F7F7FA"/>
<path d="M100.474 51.3752C100.474 52.5325 100.751 53.4464 101.295 54.1242C101.847 54.8005 102.653 55.1372 103.724 55.1372C104.806 55.1372 105.618 54.8195 106.158 54.1854C106.702 53.5514 106.973 52.6316 106.973 51.4189V43.4007H110.199V51.3504C110.199 52.3517 110.063 53.2598 109.782 54.0804C109.507 54.9011 109.093 55.6022 108.543 56.1881C107.996 56.7682 107.319 57.223 106.513 57.5422C105.707 57.8658 104.78 58.0232 103.724 58.0232C102.681 58.0232 101.759 57.8687 100.956 57.567C100.15 57.2565 99.4725 56.8149 98.9259 56.2406C98.3764 55.659 97.9567 54.9696 97.6739 54.1548C97.3867 53.3429 97.2454 52.4305 97.2454 51.4189V43.4007H100.474V51.3752Z" fill="#F7F7FA"/>
<path d="M129.19 57.7252H125.985L119.38 48.5745V57.7252H116.257V43.4001H119.147L126.094 53.0639V43.4001H129.19V57.7252Z" fill="#F7F7FA"/>
<path d="M140.006 57.7252H136.776V43.4001H140.006V57.7252Z" fill="#F7F7FA"/>
<path d="M153.597 54.4951H153.811L157.488 43.4H161.164L155.477 57.7659H151.695L146.01 43.4H149.749L153.597 54.4951Z" fill="#F7F7FA"/>
<path d="M176.799 46.2876H169.254V48.9783H175.987V51.7798H169.254V54.8378H177.166V57.7252H166.088V43.4001H176.799V46.2876Z" fill="#F7F7FA"/>
<path d="M189.466 50.605C190.234 50.605 190.852 50.4126 191.316 50.0263C191.778 49.6444 192.011 49.1066 192.011 48.423C192.011 47.7394 191.794 47.2102 191.36 46.8313C190.924 46.4552 190.32 46.2657 189.554 46.2657H186.433V50.605H189.466ZM191.969 43.7441C192.652 43.9715 193.243 44.2995 193.734 44.7265C194.225 45.1522 194.604 45.6696 194.877 46.2657C195.145 46.8663 195.28 47.5338 195.28 48.2758C195.28 49.2582 195.024 50.1283 194.514 50.8834C193.998 51.6398 193.279 52.2083 192.354 52.5931L195.834 57.7252H191.946L189.32 53.4516H186.433V57.7252H183.225V43.4001H189.705C190.526 43.4001 191.284 43.5153 191.969 43.7441Z" fill="#F7F7FA"/>
<path d="M208.94 46.2664C208.236 46.0521 207.511 45.9428 206.756 45.9428C205.815 45.9428 205.147 46.074 204.743 46.3188C204.348 46.571 204.146 46.9121 204.146 47.3537C204.146 47.7706 204.299 48.081 204.596 48.2866C204.895 48.495 205.373 48.6408 206.032 48.7253L208.128 49.0008C209.693 49.2194 210.865 49.6975 211.639 50.4438C212.416 51.1959 212.805 52.1754 212.805 53.3837C212.805 54.0863 212.671 54.7203 212.401 55.2859C212.13 55.8587 211.737 56.3455 211.213 56.7522C210.692 57.1574 210.044 57.4737 209.265 57.6909C208.488 57.9153 207.606 58.0232 206.607 58.0232C205.422 58.0232 204.348 57.9022 203.377 57.6603C202.411 57.4183 201.461 56.9883 200.538 56.379L201.881 53.751C202.682 54.2481 203.477 54.6023 204.275 54.8165C205.078 55.0308 205.914 55.1372 206.797 55.1372C207.736 55.1372 208.441 54.9929 208.905 54.7145C209.37 54.4244 209.601 54.0426 209.601 53.5572C209.601 53.1418 209.441 52.8182 209.131 52.5733C208.814 52.3299 208.301 52.1594 207.564 52.0602L205.37 51.7804C203.965 51.5968 202.886 51.158 202.117 50.4744C201.348 49.7937 200.964 48.8026 200.964 47.5039C200.964 46.7911 201.104 46.1614 201.383 45.6134C201.659 45.0668 202.048 44.6062 202.542 44.236C203.044 43.8643 203.646 43.5844 204.351 43.3906C205.059 43.1982 205.836 43.102 206.692 43.102C207.845 43.102 208.907 43.2521 209.88 43.5494C210.843 43.8497 211.694 44.3045 212.422 44.9196L210.843 47.205C210.272 46.7911 209.635 46.4806 208.94 46.2664Z" fill="#F7F7FA"/>
<path d="M221.813 57.7252H218.586V43.4001H221.813V57.7252Z" fill="#F7F7FA"/>
<path d="M240.827 46.3095H235.928V57.7252H232.746V46.3095H227.847V43.4001H240.827V46.3095Z" fill="#F7F7FA"/>
<path d="M251.615 49.7712H251.824L255.032 43.4001H258.842L253.281 52.9356V57.7252H250.073V52.9356L244.52 43.4001H248.363L251.615 49.7712Z" fill="#F7F7FA"/>
</svg>
