<svg width="279" height="76" viewBox="0 0 279 76" fill="none" xmlns="http://www.w3.org/2000/svg">
<path fill-rule="evenodd" clip-rule="evenodd" d="M81.9287 66.6527C84.7979 66.6527 87.3311 66.088 89.5284 64.9562C91.7233 63.8269 93.4197 62.228 94.6165 60.1619C95.8109 58.097 96.4104 55.6926 96.4104 52.9523C96.4104 48.7781 95.0945 45.4947 92.4625 43.1024C89.8306 40.7113 86.3197 39.5145 81.9287 39.5145H76.7094V66.6527H81.9287ZM67.9033 31.556H81.9937C86.5593 31.556 90.6264 32.4482 94.1927 34.2313C97.7577 36.0144 100.529 38.5152 102.509 41.7322C104.488 44.9517 105.479 48.6914 105.479 52.9523C105.479 57.129 104.488 60.859 102.509 64.1411C100.529 67.4256 97.7577 69.9914 94.1927 71.8395C90.6264 73.6876 86.5593 74.6111 81.9937 74.6111H67.9033V31.556Z" fill="#F7F7FA"/>
<path fill-rule="evenodd" clip-rule="evenodd" d="M139.301 65.4463C141.411 64.2507 143.061 62.5759 144.259 60.4232C145.455 58.2704 146.052 55.8239 146.052 53.0836C146.052 50.389 145.455 47.963 144.259 45.8102C143.061 43.6574 141.411 41.9719 139.301 40.7546C137.191 39.5374 134.832 38.9281 132.223 38.9281C129.57 38.9281 127.2 39.5265 125.112 40.7221C123.024 41.9189 121.382 43.5924 120.186 45.7452C118.991 47.8979 118.394 50.3457 118.394 53.0836C118.394 55.8239 118.991 58.2704 120.186 60.4232C121.382 62.5759 123.024 64.2507 125.112 65.4463C127.2 66.6442 129.57 67.2402 132.223 67.2402C134.832 67.2402 137.191 66.6442 139.301 65.4463ZM132.158 75.3949C127.984 75.3949 124.155 74.4161 120.677 72.4596C117.198 70.5019 114.435 67.8181 112.392 64.4024C110.346 60.989 109.325 57.2169 109.325 53.0836C109.325 48.9526 110.346 45.1805 112.392 41.766C114.435 38.3526 117.198 35.6665 120.677 33.71C124.155 31.7523 127.984 30.7734 132.158 30.7734C136.332 30.7734 140.172 31.7523 143.672 33.71C147.172 35.6665 149.957 38.3526 152.021 41.766C154.088 45.1805 155.121 48.9526 155.121 53.0836C155.121 57.2169 154.088 60.989 152.021 64.4024C149.957 67.8181 147.172 70.5019 143.672 72.4596C140.172 74.4161 136.332 75.3949 132.158 75.3949Z" fill="#F7F7FA"/>
<path fill-rule="evenodd" clip-rule="evenodd" d="M188.944 65.4463C191.052 64.2507 192.705 62.5759 193.902 60.4232C195.097 58.2704 195.695 55.8239 195.695 53.0836C195.695 50.389 195.097 47.963 193.902 45.8102C192.705 43.6574 191.052 41.9719 188.944 40.7546C186.833 39.5374 184.475 38.9281 181.865 38.9281C179.213 38.9281 176.842 39.5265 174.756 40.7221C172.667 41.9189 171.025 43.5924 169.829 45.7452C168.634 47.8979 168.036 50.3457 168.036 53.0836C168.036 55.8239 168.634 58.2704 169.829 60.4232C171.025 62.5759 172.667 64.2507 174.756 65.4463C176.842 66.6442 179.213 67.2402 181.865 67.2402C184.475 67.2402 186.833 66.6442 188.944 65.4463ZM181.8 75.3949C177.626 75.3949 173.797 74.4161 170.319 72.4596C166.84 70.5019 164.078 67.8181 162.034 64.4024C159.989 60.989 158.968 57.2169 158.968 53.0836C158.968 48.9526 159.989 45.1805 162.034 41.766C164.078 38.3526 166.84 35.6665 170.319 33.71C173.797 31.7523 177.626 30.7734 181.8 30.7734C185.976 30.7734 189.814 31.7523 193.314 33.71C196.814 35.6665 199.599 38.3526 201.665 41.766C203.73 45.1805 204.764 48.9526 204.764 53.0836C204.764 57.2169 203.73 60.989 201.665 64.4024C199.599 67.8181 196.814 70.5019 193.314 72.4596C189.814 74.4161 185.976 75.3949 181.8 75.3949Z" fill="#F7F7FA"/>
<path fill-rule="evenodd" clip-rule="evenodd" d="M218.789 51.6484H226.16C228.203 51.6484 229.802 51.0837 230.954 49.952C232.107 48.8226 232.683 47.3224 232.683 45.4514C232.683 43.6249 232.097 42.1464 230.922 41.0147C229.748 39.8841 228.16 39.3194 226.16 39.3194H218.789V51.6484ZM236.403 74.6111L225.247 59.4106H218.789V74.6111H209.982V31.556H226.16C229.16 31.556 231.836 32.1327 234.184 33.285C236.533 34.4384 238.37 36.0686 239.697 38.178C241.022 40.2862 241.687 42.7123 241.687 45.4514C241.687 48.1905 241.011 50.6274 239.664 52.7573C238.316 54.8884 236.469 56.5415 234.119 57.7166L246.316 74.6111H236.403Z" fill="#F7F7FA"/>
<path fill-rule="evenodd" clip-rule="evenodd" d="M254.113 72.8172C251.22 71.099 248.949 68.785 247.297 65.8689L253.363 61.3033C254.755 63.2176 256.277 64.7395 257.93 65.8689C259.582 67.0018 261.583 67.5665 263.93 67.5665C265.844 67.5665 267.344 67.1427 268.432 66.2939C269.519 65.4451 270.064 64.282 270.064 62.8035C270.064 61.5429 269.66 60.5761 268.856 59.9006C268.052 59.2264 266.627 58.4113 264.583 57.4541L259.952 55.3664C256.646 53.8878 254.082 52.1709 252.253 50.2132C250.426 48.2555 249.515 45.8427 249.515 42.9712C249.515 40.5367 250.133 38.396 251.374 36.5466C252.613 34.6985 254.319 33.2741 256.496 32.2736C258.668 31.2731 261.103 30.7734 263.802 30.7734C267.105 30.7734 269.966 31.5127 272.379 32.9912C274.793 34.4697 276.674 36.4479 278.022 38.9281L272.02 43.5587C269.802 40.2549 267.063 38.6019 263.802 38.6019C262.277 38.6019 261.007 38.9594 259.985 39.677C258.961 40.3958 258.452 41.4288 258.452 42.7761C258.452 43.9079 258.833 44.8097 259.592 45.4839C260.353 46.1582 261.648 46.9083 263.474 47.7342L268.367 49.887C271.977 51.4967 274.651 53.269 276.392 55.2038C278.13 57.1399 279 59.5635 279 62.4784C279 65.0875 278.348 67.3703 277.043 69.3268C275.738 71.2845 273.945 72.7846 271.661 73.8285C269.378 74.8724 266.802 75.3949 263.93 75.3949C260.277 75.3949 257.004 74.5353 254.113 72.8172Z" fill="#F7F7FA"/>
<path fill-rule="evenodd" clip-rule="evenodd" d="M67.9014 21.4584H277.513V1.44312H67.9014V21.4584Z" fill="#C81D1E"/>
<path fill-rule="evenodd" clip-rule="evenodd" d="M0.73291 74.6111H56.914V31.556H0.73291V74.6111Z" fill="#142E74"/>
<path fill-rule="evenodd" clip-rule="evenodd" d="M29.718 3.21341C31.0725 4.69072 31.7492 6.64842 31.7492 9.08773V21.5684H26.2625V9.8607C26.2625 8.66753 25.9363 7.71878 25.2861 7.01444C24.6359 6.3101 23.7691 5.95733 22.6843 5.95733C21.6007 5.95733 20.7133 6.3101 20.021 7.01444C19.3311 7.71878 18.9856 8.6266 18.9856 9.73789V21.5684H13.4965V9.8607C13.4965 8.66753 13.1714 7.71878 12.5213 7.01444C11.8711 6.3101 11.003 5.95733 9.91944 5.95733C8.80814 5.95733 7.91478 6.3101 7.23572 7.01444C6.55907 7.71878 6.21954 8.66753 6.21954 9.8607V21.5684H0.73291V1.44473H5.77286V3.23388C6.45071 2.52954 7.27666 1.98051 8.2531 1.5868C9.22834 1.1943 10.2987 0.998047 11.4642 0.998047C14.1202 0.998047 16.1116 1.96004 17.4408 3.88404C18.2258 2.98946 19.1951 2.28512 20.3473 1.76981C21.4995 1.2557 22.7661 0.998047 24.1483 0.998047C26.5058 0.998047 28.3623 1.7361 29.718 3.21341Z" fill="#F7F7FA"/>
<path fill-rule="evenodd" clip-rule="evenodd" d="M49.3515 1.44377V6.28145H47.8886C46.2343 6.28145 44.9208 6.72211 43.9455 7.60344C42.9691 8.48356 42.4815 9.79231 42.4815 11.5261V21.5674H36.9924V1.44377H42.0348V3.84214C42.7114 3.00295 43.5241 2.35279 44.4741 1.89166C45.4216 1.43053 46.4523 1.20056 47.5636 1.20056C48.2402 1.20056 48.8362 1.28123 49.3515 1.44377Z" fill="#F7F7FA"/>
</svg>
