<svg width="257" height="90" viewBox="0 0 257 90" fill="none" xmlns="http://www.w3.org/2000/svg">
<path d="M100.801 21.2251L105.402 13.3116H106.997V24.047H105.463V15.8881L100.863 23.9856H99.2676V13.3116H100.801V21.2251Z" fill="#F7F7FA"/>
<path d="M107.12 24.1074H105.402V16.2553L100.985 24.1074H99.145V13.2494H100.863V20.9175L105.279 13.2494H107.12V24.1074ZM105.586 23.9234H106.936V13.4334H105.402L100.74 21.6536V13.4334H99.3904V23.9234H100.924L105.586 15.5805V23.9234Z" fill="#F7F7FA"/>
<path d="M115.77 13.3116H117.303V24.047H115.77V19.3234H111.659V23.9856H110.064V13.3116H111.659V17.7898H115.77V13.3116Z" fill="#F7F7FA"/>
<path d="M117.426 24.1074H115.708V19.4452H111.782V24.1074H110.064V13.2494H111.782V17.8502H115.708V13.2494H117.426V24.1074ZM115.892 23.9234H117.242V13.4334H115.892V18.0343H111.598V13.4334H110.248V23.9234H111.598V19.2612H115.892V23.9234Z" fill="#F7F7FA"/>
<path d="M125.339 13.0063C126.934 13.0063 128.59 13.7425 129.633 15.0921L128.59 16.1349C127.854 15.0921 126.873 14.54 125.462 14.54C122.947 14.54 121.474 16.3803 121.474 18.7727C121.474 21.1652 123.008 23.0055 125.585 23.0055C126.995 23.0055 127.977 22.4534 128.713 21.4106L129.756 22.4534C128.713 23.803 127.057 24.5391 125.462 24.5391C122.211 24.5391 119.941 22.024 119.941 18.8954C119.818 15.5215 122.211 13.0063 125.339 13.0063Z" fill="#F7F7FA"/>
<path d="M125.339 24.4164C122.088 24.4164 119.695 21.9013 119.695 18.7114C119.695 15.5215 122.21 13.0063 125.339 13.0063C127.057 13.0063 128.713 13.7425 129.633 15.0921L129.756 15.2148L128.59 16.2576L128.468 16.1349C127.731 15.0921 126.627 14.54 125.4 14.54C123.131 14.54 121.474 16.2576 121.474 18.6501C121.474 21.1652 123.069 22.7601 125.462 22.7601C126.811 22.7601 127.731 22.208 128.529 21.1652L128.652 21.0425L129.817 22.208L129.694 22.3307C128.713 23.619 127.057 24.4164 125.339 24.4164ZM125.339 13.129C122.272 13.129 119.879 15.6442 119.879 18.6501C119.879 21.7786 122.272 24.1711 125.339 24.1711C126.934 24.1711 128.468 23.4349 129.449 22.2694L128.59 21.4106C127.854 22.4534 126.75 23.0055 125.462 23.0055C122.947 23.0055 121.229 21.2879 121.229 18.7114C121.229 16.1963 122.947 14.4173 125.339 14.4173C126.689 14.4173 127.731 14.9694 128.468 16.0122L129.326 15.1534C128.406 13.8038 126.873 13.129 125.339 13.129Z" fill="#F7F7FA"/>
<path d="M130.983 13.3116H138.467V14.7226H135.523V23.9856H133.989V14.7839H131.045V13.3116H130.983Z" fill="#F7F7FA"/>
<path d="M135.584 24.1074H133.866V14.8444H130.921V13.2494H138.589V14.8444H135.645V24.1074H135.584ZM134.05 23.9234H135.4V14.6603H138.344V13.4334H131.105V14.6603H134.05V23.9234Z" fill="#F7F7FA"/>
<path d="M142.086 21.2251L146.564 13.3116H148.282V24.047H146.748V15.8881L142.147 23.9856H140.552V13.3116H142.086V21.2251Z" fill="#F7F7FA"/>
<path d="M148.405 24.1074H146.687V16.2553L142.27 24.1074H140.43V13.2494H142.148V20.9175L146.564 13.2494H148.405V24.1074ZM146.871 23.9234H148.221V13.4334H146.687L142.025 21.6536V13.4334H140.675V23.9234H142.209L146.871 15.5805V23.9234Z" fill="#F7F7FA"/>
<path d="M150.368 13.3116H157.852V14.7226H154.907V23.9856H153.374V14.7839H150.429V13.3116H150.368Z" fill="#F7F7FA"/>
<path d="M154.969 24.1074H153.252V14.8444H150.307V13.2494H157.975V14.8444H154.969V24.1074ZM153.436 23.9234H154.785V14.6603H157.73V13.4334H150.491V14.6603H153.436V23.9234Z" fill="#F7F7FA"/>
<path d="M160.735 13.3116L162.943 18.2806L165.152 13.3116H166.869L162.023 24.047H160.428L162.146 20.1209L159.079 13.3116H160.735Z" fill="#F7F7FA"/>
<path d="M162.023 24.1083H160.183L160.306 23.9856L162.023 20.1822L158.956 13.3116H160.858V13.4343L162.943 18.2192L165.152 13.373H167.054L166.931 13.4957L162.023 24.1083ZM160.428 23.9243H161.839L166.624 13.4343H165.213L162.943 18.5873L160.735 13.4343H159.263L162.207 20.1209L160.428 23.9243Z" fill="#F7F7FA"/>
<path d="M167.667 13.3116H175.151V14.7226H172.206V23.9856H170.673V14.7839H167.728V13.3116H167.667Z" fill="#F7F7FA"/>
<path d="M172.267 24.1074H170.55V14.8444H167.605V13.2494H175.273V14.8444H172.329V24.1074H172.267ZM170.734 23.9234H172.083V14.6603H175.028V13.4334H167.789V14.6603H170.734V23.9234Z" fill="#F7F7FA"/>
<path d="M181.469 13.3116H185.396C187.297 13.3116 188.769 14.5385 188.769 16.3789C188.769 18.2192 187.359 19.4461 185.396 19.4461H183.003V24.047H181.469V13.3116ZM185.457 17.9738C186.316 17.9738 187.175 17.4831 187.175 16.3789C187.175 15.2133 186.438 14.7839 185.457 14.7839H183.064V18.0352H185.457V17.9738Z" fill="#F7F7FA"/>
<path d="M183.064 24.1074H181.346V13.2494H185.334C187.358 13.2494 188.769 14.599 188.769 16.378C188.769 18.2796 187.358 19.5065 185.334 19.5065H183.064V24.1074ZM181.53 23.9234H182.88V19.3225H185.395C187.297 19.3225 188.646 18.0956 188.646 16.378C188.646 14.6603 187.297 13.4334 185.395 13.4334H181.592V23.9234H181.53ZM185.457 18.0956H182.88V14.6603H185.395C186.254 14.6603 187.236 15.2124 187.236 16.378C187.297 17.5435 186.315 18.0956 185.457 18.0956ZM183.064 17.9116H185.334C186.07 17.9116 186.929 17.5435 186.929 16.378C186.929 15.2124 186.07 14.8444 185.334 14.8444H183.064V17.9116Z" fill="#F7F7FA"/>
<path d="M192.572 13.3116H194.167L197.787 24.047H196.253L195.272 21.2864H191.284L190.303 24.047H188.769L192.572 13.3116ZM191.775 19.7528H194.719L193.186 15.336L191.775 19.7528Z" fill="#F7F7FA"/>
<path d="M197.909 24.1087H196.192V23.986L195.21 21.2255H191.407L190.425 23.986H188.708V23.8633L192.45 13.0667H194.167V13.1893L197.909 24.1087ZM196.376 23.9246H197.725L194.106 13.4347H192.695L189.076 23.9246H190.425L191.407 21.1641H195.517V21.2868L196.376 23.9246ZM194.965 19.8146H191.714L193.309 15.0297L194.965 19.8146ZM191.959 19.6305H194.658L193.309 15.6431L191.959 19.6305Z" fill="#F7F7FA"/>
<path d="M201.345 17.7906H202.94C203.983 17.7906 204.842 17.1158 204.842 16.0729C204.842 14.9074 203.799 14.3553 202.817 14.3553C201.836 14.3553 200.793 14.846 200.793 15.7662H199.259C199.259 14.1712 200.793 12.8217 202.817 12.8217C204.658 12.8217 206.375 14.0485 206.375 15.8889C206.375 16.9317 205.823 17.7906 205.026 18.2813C206.007 18.7721 206.743 19.6309 206.743 20.8578C206.743 22.7595 205.148 24.1091 202.94 24.1091C200.916 24.1091 199.382 22.9435 199.137 21.1645L200.67 20.6738C200.793 21.8393 201.713 22.5754 202.94 22.5754C204.106 22.5754 205.21 22.0233 205.21 20.7351C205.21 19.4469 204.167 19.0175 203.124 19.0175H201.284V17.7906H201.345Z" fill="#F7F7FA"/>
<path d="M202.94 24.4157C200.916 24.4157 199.321 23.1888 199.014 21.3485V21.2258L200.732 20.735V20.8577C200.855 21.9006 201.713 22.6981 202.94 22.6981C203.983 22.6981 205.149 22.146 205.149 20.9804C205.149 19.5695 203.738 19.3855 203.124 19.3855H201.223V17.7905H202.94C203.799 17.7905 204.781 17.2384 204.781 16.1955C204.781 15.03 203.799 14.6006 202.879 14.6006C201.897 14.6006 200.977 14.9687 200.977 15.9502V16.0729H199.26V15.9502C199.26 14.2325 200.855 12.8829 202.879 12.8829C204.719 12.8829 206.498 14.0485 206.498 16.0115C206.498 16.993 206.007 17.8518 205.271 18.4039C206.314 18.9561 206.866 19.8149 206.866 20.9804C206.866 23.0048 205.149 24.4157 202.94 24.4157ZM199.26 21.4712C199.566 23.0661 201.1 24.2317 203.002 24.2317C205.21 24.2317 206.744 23.0048 206.744 21.1031C206.744 19.6922 205.885 18.8947 205.149 18.588L204.965 18.4653L205.087 18.3426C205.946 17.7905 206.437 16.9317 206.437 16.0729C206.437 14.1712 204.719 13.1283 203.002 13.1283C201.1 13.1283 199.628 14.3552 199.566 15.8888H200.916C201.039 14.846 201.959 14.4779 203.002 14.4779C203.983 14.4779 205.087 15.03 205.087 16.3182C205.087 17.3611 204.228 18.1586 203.063 18.1586H201.529V19.3855H203.247C204.658 19.3855 205.455 20.0603 205.455 21.2258C205.455 22.5754 204.29 23.1275 203.063 23.1275C201.713 23.1275 200.855 22.3913 200.67 21.2258L199.26 21.4712Z" fill="#F7F7FA"/>
<path d="M209.381 13.3116H213.185C215.086 13.3116 216.558 14.4772 216.558 16.2562C216.558 17.2377 216.068 18.0965 215.209 18.5259C216.068 19.0167 216.62 19.8755 216.62 21.0411C216.62 22.8814 215.209 24.1083 213.246 24.1083H209.32V13.3116H209.381ZM213.307 17.7898C214.166 17.7898 215.025 17.299 215.025 16.2562C215.025 15.2133 214.166 14.7226 213.307 14.7226H210.915V17.7898H213.307ZM213.491 22.5747C214.35 22.5747 215.209 22.0226 215.209 20.9797C215.209 19.8142 214.35 19.3848 213.491 19.3848H210.976V22.636H213.491V22.5747Z" fill="#F7F7FA"/>
<path d="M213.369 24.1074H209.381V13.2494H213.307C215.332 13.2494 216.743 14.4763 216.743 16.3166C216.743 17.2981 216.252 18.0343 215.516 18.5864C216.374 19.0771 216.865 19.9973 216.865 21.1015C216.804 22.8805 215.393 24.1074 213.369 24.1074ZM209.443 23.9234H213.246C215.148 23.9234 216.497 22.6965 216.497 20.9788C216.497 19.936 216.006 19.0771 215.086 18.5864L214.902 18.4637L215.086 18.341C215.822 17.8502 216.313 16.9914 216.313 16.1326C216.313 14.5376 214.964 13.2494 213.062 13.2494H209.32V23.862H209.443V23.9234ZM213.491 22.6965H210.915V19.2612H213.491C214.35 19.2612 215.332 19.7519 215.332 20.9788C215.27 22.0217 214.35 22.6965 213.491 22.6965ZM210.976 22.5124H213.369C214.105 22.5124 214.964 21.9603 214.964 20.9788C214.964 19.5679 213.737 19.4452 213.369 19.4452H210.976V22.5124ZM213.307 17.9116H210.792V14.6603H213.307C214.166 14.6603 215.148 15.0284 215.148 16.2553C215.209 17.5435 214.166 17.9116 213.307 17.9116ZM210.976 17.7275H213.246C213.982 17.7275 214.841 17.3595 214.841 16.3166C214.841 15.2738 213.982 14.9057 213.246 14.9057H210.976V17.7275Z" fill="#F7F7FA"/>
<path d="M220.914 21.2251L225.515 13.3116H227.11V24.047H225.576V15.8881L221.098 23.9856H219.38V13.3116H220.914V21.2251Z" fill="#F7F7FA"/>
<path d="M227.233 24.1074H225.515V16.2553L221.099 24.1074H219.258V13.2494H220.976V20.9175L225.393 13.2494H227.233V24.1074ZM225.699 23.9234H227.049V13.4334H225.515L220.853 21.6536V13.4334H219.504V23.9234H221.037L225.699 15.5805V23.9234Z" fill="#F7F7FA"/>
<path d="M229.257 13.3116H236.741V14.7226H233.797V23.9856H232.263V14.7839H229.319V13.3116H229.257Z" fill="#F7F7FA"/>
<path d="M233.858 24.1074H232.141V14.8444H229.196V13.2494H236.864V14.8444H233.92V24.1074H233.858ZM232.325 23.9234H233.674V14.6603H236.619V13.4334H229.38V14.6603H232.325V23.9234Z" fill="#F7F7FA"/>
<path d="M240.361 21.2251L244.839 13.3116H246.557V24.047H245.023V15.8881L240.422 23.9856H238.827V13.3116H240.361V21.2251Z" fill="#F7F7FA"/>
<path d="M246.679 24.1074H244.961V16.2553L240.544 24.1074H238.704V13.2494H240.422V20.9175L244.839 13.2494H246.679V24.1074ZM245.145 23.9234H246.495V13.4334H244.961L240.238 21.6536V13.4334H238.888V23.9234H240.422L245.145 15.6418V23.9234Z" fill="#F7F7FA"/>
<path d="M249.132 16.2563C249.132 14.3546 250.666 13.1891 252.506 13.1891H256.31V23.9244H254.776V19.3235H254.469L250.727 23.9857H249.01V23.679L252.629 19.2622C250.789 19.3235 249.132 18.2193 249.132 16.2563ZM254.653 17.7899V14.7227H252.261C251.402 14.7227 250.543 15.2748 250.543 16.2563C250.543 17.2378 251.28 17.7899 252.261 17.7899H254.653Z" fill="#F7F7FA"/>
<path d="M256.371 24.1083H254.531V19.4461H254.347L250.605 24.1083H248.703V23.7402L252.261 19.4461C250.175 19.3234 248.887 17.8511 248.887 16.3789C248.887 14.8453 250.053 13.3116 252.322 13.3116H256.249V24.1083H256.371ZM254.776 23.9243H256.126V13.4343H252.384C250.85 13.4343 249.133 14.4158 249.133 16.3789C249.133 17.2377 249.501 17.9738 250.175 18.4646C250.728 18.9553 251.586 19.2007 252.445 19.2007H252.629L248.887 23.6789V23.8629H250.482L254.224 19.2007H254.715V23.9243H254.776ZM254.776 17.9125H252.261C251.402 17.9125 250.421 17.3604 250.421 16.3175C250.421 15.2747 251.402 14.7226 252.261 14.7226H254.776V17.9125ZM252.384 14.8453C251.648 14.8453 250.789 15.336 250.789 16.2562C250.789 17.2377 251.648 17.6671 252.384 17.6671H254.654V14.7839H252.384V14.8453Z" fill="#F7F7FA"/>
<path d="M99.2676 30.9181H105.954V32.329H100.801V41.5921H99.2676V30.9181Z" fill="#F7F7FA"/>
<path d="M100.863 41.7149H99.145V30.7955H106.138V32.3905H100.863V41.7149ZM99.3291 41.5308H100.679V32.2678H105.954V31.0409H99.3291V41.5308Z" fill="#F7F7FA"/>
<path d="M112.273 30.6108C115.402 30.6108 117.917 33.126 117.917 36.2545C117.917 39.3831 115.402 41.8982 112.273 41.8982C109.145 41.8982 106.629 39.3831 106.629 36.2545C106.629 33.126 109.083 30.6108 112.273 30.6108ZM112.273 40.4873C114.666 40.4873 116.383 38.7697 116.383 36.2545C116.383 33.7394 114.666 32.0218 112.273 32.0218C109.881 32.0218 108.163 33.7394 108.163 36.2545C108.163 38.647 109.758 40.4873 112.273 40.4873Z" fill="#F7F7FA"/>
<path d="M112.273 42.0209C109.144 42.0209 106.568 39.4445 106.568 36.3159C106.568 33.1873 109.144 30.6108 112.273 30.6108C115.401 30.6108 117.978 33.1873 117.978 36.3159C117.978 39.4445 115.401 42.0209 112.273 42.0209ZM112.273 30.7335C109.205 30.7335 106.752 33.2487 106.752 36.2545C106.752 39.2604 109.267 41.7756 112.273 41.7756C115.279 41.7756 117.794 39.2604 117.794 36.2545C117.794 33.2487 115.34 30.7335 112.273 30.7335ZM112.273 40.5487C109.758 40.5487 108.04 38.7083 108.04 36.2545C108.04 33.8008 109.88 31.9604 112.273 31.9604C114.788 31.9604 116.505 33.6781 116.505 36.2545C116.444 38.7697 114.665 40.5487 112.273 40.5487ZM112.273 32.1445C109.88 32.1445 108.285 33.8621 108.285 36.2545C108.285 38.647 110.003 40.3646 112.273 40.3646C114.665 40.3646 116.26 38.647 116.26 36.2545C116.26 33.8621 114.542 32.1445 112.273 32.1445Z" fill="#F7F7FA"/>
<path d="M120.37 30.9181H124.296C126.198 30.9181 127.67 32.145 127.67 33.9853C127.67 35.8257 126.259 37.0526 124.296 37.0526H121.904V41.6534H120.37V30.9181ZM124.419 35.5803C125.278 35.5803 126.137 35.0895 126.137 33.9853C126.137 32.8811 125.4 32.3904 124.419 32.3904H122.026V35.6416H124.419V35.5803Z" fill="#F7F7FA"/>
<path d="M122.027 41.7149H120.309V30.7955H124.297C126.321 30.7955 127.732 32.1451 127.732 33.9241C127.732 35.8258 126.321 37.0527 124.297 37.0527H122.027V41.7149ZM120.493 41.5308H121.843V36.93H124.358C126.26 36.93 127.609 35.7031 127.609 33.9855C127.609 32.2678 126.198 30.9796 124.297 30.9796H120.493V41.5308ZM124.419 35.7031H121.904V32.2678H124.419C125.278 32.2678 126.26 32.8199 126.26 33.9855C126.137 35.0897 125.278 35.7031 124.419 35.7031ZM122.027 35.5191H124.297C125.033 35.5191 125.892 35.151 125.892 33.9855C125.892 32.8199 125.033 32.4518 124.297 32.4518H122.027V35.5191Z" fill="#F7F7FA"/>
<path d="M134.725 30.6108C137.853 30.6108 140.368 33.126 140.368 36.2545C140.368 39.3831 137.853 41.8982 134.725 41.8982C131.596 41.8982 129.081 39.3831 129.081 36.2545C129.081 33.126 131.535 30.6108 134.725 30.6108ZM134.725 40.4873C137.117 40.4873 138.835 38.7697 138.835 36.2545C138.835 33.7394 137.117 32.0218 134.725 32.0218C132.332 32.0218 130.615 33.7394 130.615 36.2545C130.615 38.647 132.332 40.4873 134.725 40.4873Z" fill="#F7F7FA"/>
<path d="M134.725 42.0209C131.596 42.0209 129.02 39.4445 129.02 36.3159C129.02 33.1873 131.596 30.6108 134.725 30.6108C137.853 30.6108 140.43 33.1873 140.43 36.3159C140.43 39.4445 137.853 42.0209 134.725 42.0209ZM134.725 30.7335C131.658 30.7335 129.204 33.2487 129.204 36.2545C129.204 39.2604 131.719 41.7756 134.725 41.7756C137.792 41.7756 140.246 39.2604 140.246 36.2545C140.246 33.2487 137.792 30.7335 134.725 30.7335ZM134.725 40.5487C132.21 40.5487 130.492 38.7083 130.492 36.2545C130.492 33.8008 132.332 31.9604 134.725 31.9604C137.24 31.9604 138.958 33.6781 138.958 36.2545C138.896 38.7697 137.117 40.5487 134.725 40.5487ZM134.725 32.1445C132.332 32.1445 130.737 33.8621 130.737 36.2545C130.737 38.647 132.455 40.3646 134.725 40.3646C137.117 40.3646 138.712 38.647 138.712 36.2545C138.712 33.8621 137.117 32.1445 134.725 32.1445Z" fill="#F7F7FA"/>
<path d="M143.251 30.9181H150.061V40.1811H151.226V43.8005H149.692V41.5921H142.883V43.8005H141.35V40.1811H142.024C142.761 40.1811 143.251 39.6904 143.251 38.8315V30.9181ZM148.466 40.1811V32.4517H144.662V38.7702C144.662 39.3223 144.478 39.8131 144.11 40.1811H148.466Z" fill="#F7F7FA"/>
<path d="M151.227 43.9233H149.509V41.7149H142.884V43.9233H141.167V40.1199H141.903C142.577 40.1199 143.068 39.6292 143.068 38.893V30.7955H150.061V40.0586H151.227V43.9233ZM149.693 43.7392H151.043V40.3039H149.877V30.9796H143.314V38.8317C143.314 39.6905 142.823 40.1813 141.964 40.2426H141.412V43.6779H142.761V41.4695H149.755V43.7392H149.693ZM148.589 40.3039H143.988L144.172 40.1199C144.54 39.7518 144.724 39.2611 144.724 38.709V32.2678H148.651V40.3039H148.589ZM144.356 40.0586H148.344V32.5132H144.786V38.709C144.724 39.1384 144.663 39.6292 144.356 40.0586Z" fill="#F7F7FA"/>
<path d="M157.913 30.6108C159.508 30.6108 161.165 31.347 162.208 32.6966L161.165 33.7394C160.429 32.6966 159.447 32.1445 158.036 32.1445C155.521 32.1445 154.049 33.9848 154.049 36.3772C154.049 38.7697 155.582 40.61 158.159 40.61C159.57 40.61 160.551 40.0579 161.287 39.015L162.33 40.0579C161.287 41.4075 159.631 42.1436 158.036 42.1436C154.785 42.1436 152.515 39.6285 152.515 36.4999C152.515 33.126 154.785 30.6108 157.913 30.6108Z" fill="#F7F7FA"/>
<path d="M158.036 42.0209C154.785 42.0209 152.392 39.5058 152.392 36.3159C152.392 33.126 154.907 30.6108 158.036 30.6108C159.753 30.6108 161.41 31.347 162.33 32.6966L162.453 32.8192L161.287 33.9848L161.164 33.8621C160.428 32.8192 159.324 32.2671 158.097 32.2671C155.827 32.2671 154.171 33.9848 154.171 36.3772C154.171 38.8924 155.766 40.4873 158.158 40.4873C159.508 40.4873 160.428 39.9352 161.226 38.8924L161.348 38.7697L162.514 39.9352L162.391 40.0579C161.41 41.2235 159.753 42.0209 158.036 42.0209ZM157.913 30.7335C154.846 30.7335 152.453 33.2487 152.453 36.2545C152.453 39.3831 154.846 41.7756 157.913 41.7756C159.508 41.7756 161.042 41.0394 162.023 39.8739L161.164 39.015C160.428 40.0579 159.324 40.61 158.036 40.61C155.521 40.61 153.803 38.8924 153.803 36.3159C153.803 33.8008 155.521 32.0218 157.913 32.0218C159.263 32.0218 160.306 32.5739 161.042 33.6167L161.901 32.7579C161.103 31.4083 159.569 30.7335 157.913 30.7335Z" fill="#F7F7FA"/>
<path d="M172.022 30.9181L167.421 36.1937L172.206 41.6534H170.182L166.256 37.0526V41.6534H164.661V30.9181H166.256V35.3349L170.182 30.9181H172.022Z" fill="#F7F7FA"/>
<path d="M172.39 41.7149H170.182L166.378 37.2981V41.7149H164.661V30.7955H166.378V35.0283L170.182 30.7955H172.267L167.605 36.1325L172.39 41.7149ZM170.304 41.5308H172.022L167.36 36.1939L167.483 36.0712L171.961 30.9182H170.304L166.194 35.5191V30.9182H164.783V41.4082H166.133V36.746L166.317 36.93L170.304 41.5308Z" fill="#F7F7FA"/>
<path d="M178.402 30.6108C181.531 30.6108 184.046 33.126 184.046 36.2545C184.046 39.3831 181.531 41.8982 178.402 41.8982C175.274 41.8982 172.759 39.3831 172.759 36.2545C172.759 33.126 175.274 30.6108 178.402 30.6108ZM178.402 40.4873C180.795 40.4873 182.512 38.7697 182.512 36.2545C182.512 33.7394 180.795 32.0218 178.402 32.0218C176.01 32.0218 174.292 33.7394 174.292 36.2545C174.292 38.647 176.01 40.4873 178.402 40.4873Z" fill="#F7F7FA"/>
<path d="M178.402 42.0209C175.274 42.0209 172.697 39.4445 172.697 36.3159C172.697 33.1873 175.274 30.6108 178.402 30.6108C181.531 30.6108 184.107 33.1873 184.107 36.3159C184.107 39.4445 181.531 42.0209 178.402 42.0209ZM178.402 30.7335C175.335 30.7335 172.881 33.2487 172.881 36.2545C172.881 39.2604 175.396 41.7756 178.402 41.7756C181.47 41.7756 183.923 39.2604 183.923 36.2545C183.923 33.2487 181.47 30.7335 178.402 30.7335ZM178.402 40.5487C175.887 40.5487 174.17 38.7083 174.17 36.2545C174.17 33.8008 176.01 31.9604 178.402 31.9604C180.917 31.9604 182.635 33.6781 182.635 36.2545C182.635 38.7697 180.856 40.5487 178.402 40.5487ZM178.402 32.1445C176.01 32.1445 174.415 33.8621 174.415 36.2545C174.415 38.647 176.133 40.3646 178.402 40.3646C180.795 40.3646 182.39 38.647 182.39 36.2545C182.39 33.8621 180.795 32.1445 178.402 32.1445Z" fill="#F7F7FA"/>
<path d="M188.033 38.8309L192.634 30.9174H194.352V41.6527H192.818V33.4939L188.217 41.5914H186.5V30.9174H188.033V38.8309ZM188.524 28.2183V28.0956H189.751C189.751 28.4023 189.935 28.8317 190.487 28.8317C191.039 28.8317 191.223 28.4636 191.223 28.0956H192.45V28.2183C192.45 29.0771 191.775 30.0586 190.426 30.0586C189.076 30.0586 188.524 29.0771 188.524 28.2183Z" fill="#F7F7FA"/>
<path d="M194.475 41.7141H192.757V33.862L188.34 41.7141H186.5V30.7948H188.217V38.4629L192.634 30.7948H194.475V41.7141ZM192.941 41.5301H194.291V30.9788H192.757L188.095 39.199V30.9788H186.745V41.4688H188.279L192.941 33.1259V41.5301ZM190.549 30.12C189.199 30.12 188.463 29.1385 188.463 28.2183V28.0343H189.874V28.157C189.874 28.4637 189.996 28.8318 190.549 28.8318C191.039 28.8318 191.223 28.4637 191.223 28.157V28.0343H191.346H192.696V28.2183C192.634 29.1998 191.898 30.12 190.549 30.12ZM188.647 28.2183C188.647 29.0772 189.322 29.936 190.549 29.936C191.775 29.936 192.45 29.0772 192.45 28.2183H191.407C191.407 28.5864 191.101 28.9545 190.549 28.9545C190.058 28.9545 189.812 28.5864 189.69 28.2183H188.647Z" fill="#F7F7FA"/>
<path d="M206.621 30.6108C208.216 30.6108 209.872 31.347 210.915 32.6966L209.872 33.7394C209.136 32.6966 208.155 32.1445 206.744 32.1445C204.229 32.1445 202.757 33.9848 202.757 36.3772C202.757 38.7697 204.29 40.61 206.867 40.61C208.278 40.61 209.259 40.0579 209.995 39.015L211.038 40.0579C209.995 41.4075 208.339 42.1436 206.744 42.1436C203.493 42.1436 201.223 39.6285 201.223 36.4999C201.162 33.126 203.431 30.6108 206.621 30.6108Z" fill="#F7F7FA"/>
<path d="M206.682 42.0209C203.431 42.0209 201.038 39.5058 201.038 36.3159C201.038 33.126 203.553 30.6108 206.682 30.6108C208.4 30.6108 210.056 31.347 210.976 32.6966L211.099 32.8192L209.933 33.9848L209.811 33.8621C209.074 32.8192 207.97 32.2671 206.743 32.2671C204.474 32.2671 202.817 33.9848 202.817 36.3772C202.817 38.8924 204.412 40.4873 206.805 40.4873C208.154 40.4873 209.074 39.9352 209.872 38.8924L209.995 38.7697L211.16 39.9352L211.037 40.0579C210.056 41.2235 208.4 42.0209 206.682 42.0209ZM206.621 30.7335C203.553 30.7335 201.161 33.2487 201.161 36.2545C201.161 39.3831 203.553 41.7756 206.621 41.7756C208.216 41.7756 209.749 41.0394 210.731 39.8739L209.872 39.015C209.136 40.0579 208.032 40.61 206.743 40.61C204.228 40.61 202.511 38.8924 202.511 36.3159C202.511 33.8008 204.228 32.0218 206.621 32.0218C207.97 32.0218 209.013 32.5739 209.749 33.6167L210.608 32.7579C209.749 31.4083 208.216 30.7335 206.621 30.7335Z" fill="#F7F7FA"/>
<path d="M213.308 30.9181H217.234C219.135 30.9181 220.608 32.145 220.608 33.9853C220.608 35.8257 219.197 37.0526 217.234 37.0526H214.841V41.6534H213.308V30.9181ZM217.295 35.5803C218.154 35.5803 219.013 35.0895 219.013 33.9853C219.013 32.8811 218.277 32.3904 217.295 32.3904H214.903V35.6416H217.295V35.5803Z" fill="#F7F7FA"/>
<path d="M214.902 41.7149H213.185V30.7955H217.172C219.196 30.7955 220.607 32.1451 220.607 33.9241C220.607 35.8258 219.196 37.0527 217.172 37.0527H214.902V41.7149ZM213.369 41.5308H214.718V36.93H217.233C219.135 36.93 220.485 35.7031 220.485 33.9855C220.485 32.2678 219.135 31.0409 217.233 31.0409H213.43V41.5308H213.369ZM217.295 35.7031H214.78V32.2678H217.295C218.153 32.2678 219.135 32.8199 219.135 33.9855C219.012 35.0897 218.153 35.7031 217.295 35.7031ZM214.902 35.5191H217.172C217.908 35.5191 218.767 35.151 218.767 33.9855C218.767 32.8199 217.908 32.4518 217.172 32.4518H214.902V35.5191Z" fill="#F7F7FA"/>
<path d="M222.632 30.9181H229.134V32.329H224.288V35.3962H228.95V36.9299H224.288V40.1811H229.134V41.5921H222.632V30.9181Z" fill="#F7F7FA"/>
<path d="M229.257 41.7149H222.57V30.7955H229.257V32.3905H224.41V35.2737H229.195V36.8686H224.41V39.9359H229.257V41.7149ZM222.754 41.5308H229.073V40.3039H224.226V36.8686H229.011V35.6418H224.226V32.3905H229.073V31.1636H222.754V41.5308Z" fill="#F7F7FA"/>
<path d="M232.815 30.9181H239.625V40.1811H240.79V43.8005H239.256V41.5921H232.447V43.8005H230.914V40.1811H231.588C232.325 40.1811 232.815 39.6904 232.815 38.8315V30.9181ZM238.03 40.1811V32.4517H234.288V38.7702C234.288 39.3223 234.103 39.8131 233.735 40.1811H238.03Z" fill="#F7F7FA"/>
<path d="M240.79 43.9233H239.072V41.7149H232.569V43.9233H230.852V40.1199H231.588C232.263 40.1199 232.753 39.6292 232.753 38.893V30.7955H239.747V40.0586H240.912V43.8619H240.79V43.9233ZM239.317 43.7392H240.667V40.3039H239.501V30.9796H232.876V38.8317C232.876 39.6905 232.385 40.1813 231.527 40.2426H230.974V43.6779H232.324V41.4695H239.317V43.7392ZM238.152 40.3039H233.551L233.735 40.1199C234.103 39.7518 234.287 39.2611 234.287 38.709V32.2678H238.213V40.3039H238.152ZM233.919 40.0586H237.906V32.5132H234.348V38.709C234.41 39.1384 234.226 39.6292 233.919 40.0586Z" fill="#F7F7FA"/>
<path d="M242.937 30.9181H244.47V35.5189H247.17C249.071 35.5189 250.543 36.7458 250.543 38.5862C250.543 40.4265 249.133 41.6534 247.17 41.6534H242.937V30.9181ZM247.231 40.1811C248.09 40.1811 248.949 39.6904 248.949 38.5862C248.949 37.482 248.212 36.9912 247.231 36.9912H244.532V40.1811H247.231ZM251.402 40.1811H251.709V32.4517H251.402V30.9794H253.488V32.3904H253.181V40.1811H253.488V41.5921H251.402V40.1811Z" fill="#F7F7FA"/>
<path d="M253.61 41.7149H251.341V40.1199H251.647V32.5132H251.341V30.7955H253.61V32.3905H253.304V39.9359H253.61V41.7149ZM251.525 41.5308H253.426V40.3039H253.12V32.3291H253.426V31.1023H251.525V32.3291H251.831V40.2426H251.525V41.5308ZM247.108 41.7149H242.814V30.7955H244.531V35.3964H247.108C249.132 35.3964 250.543 36.746 250.543 38.525C250.543 40.3653 249.132 41.7149 247.108 41.7149ZM242.998 41.5308H247.108C249.01 41.5308 250.359 40.3039 250.359 38.5863C250.359 36.8686 249.01 35.6418 247.108 35.6418H244.347V30.9796H242.998V41.5308ZM247.231 40.3039H244.47V36.8686H247.231C248.089 36.8686 249.071 37.4208 249.071 38.5863C249.01 39.6905 248.089 40.3039 247.231 40.3039ZM244.654 40.0586H247.231C247.967 40.0586 248.825 39.6905 248.825 38.525C248.825 37.3594 247.967 36.9913 247.231 36.9913H244.654V40.0586Z" fill="#F7F7FA"/>
<path d="M104.911 48.5234H106.445V59.1974H104.911V54.5352H100.801V59.1974H99.2676V48.5234H100.801V53.0016H104.911V48.5234Z" fill="#F7F7FA"/>
<path d="M106.506 59.3213H104.789V54.6591H100.863V59.3213H99.145V48.402H100.863V53.0028H104.789V48.402H106.506V59.3213ZM104.973 59.1373H106.322V48.586H104.973V53.1869H100.679V48.586H99.3291V59.0759H100.679V54.4137H104.973V59.1373Z" fill="#F7F7FA"/>
<path d="M110.985 56.4369L115.585 48.5234H117.303V59.1974H115.769V51.0999L111.169 59.1974H109.451V48.5234H110.985V56.4369Z" fill="#F7F7FA"/>
<path d="M117.426 59.3213H115.708V51.4692L111.291 59.3213H109.451V48.402H111.169V56.0701L115.585 48.402H117.426V59.3213ZM115.892 59.1373H117.242V48.586H115.708L111.046 56.8062V48.586H109.696V59.0759H111.23L115.892 50.7331V59.1373Z" fill="#F7F7FA"/>
<path d="M121.352 48.5234L125.156 52.9403V48.5234H126.689V52.9403L130.431 48.5234H132.333L127.855 53.7991L132.456 59.2587H130.431L126.689 54.6579V59.2587H125.156V54.6579L121.352 59.2587H119.328L123.99 53.7991L119.512 48.5234H121.352Z" fill="#F7F7FA"/>
<path d="M132.639 59.3202H130.431L126.812 54.9033V59.3202H125.094V54.9033L121.475 59.3202H119.266L119.389 59.1361L123.99 53.7991L119.389 48.4622H121.475L125.094 52.6949V48.4622H126.812V52.6949L130.431 48.4622H132.517L132.394 48.6462L127.977 53.9218L132.639 59.3202ZM130.492 59.1361H132.21L127.609 53.7991L132.026 48.6462H130.431L126.505 53.247V48.6462H125.155V53.247L121.229 48.6462H119.634L124.051 53.7991L119.45 59.1361H121.168L125.094 54.4739V59.1361H126.443V54.4739L130.492 59.1361Z" fill="#F7F7FA"/>
<path d="M134.541 48.5234H140.92V49.9344H136.074V53.0016H140.859V54.5352H136.074V57.7865H140.92V59.1974H134.541V48.5234Z" fill="#F7F7FA"/>
<path d="M141.044 59.3213H134.357V48.402H141.044V49.9969H136.197V52.8801H140.982V54.4751H136.197V57.5423H141.044V59.3213ZM134.602 59.1373H140.921V57.9104H136.075V54.4751H140.859V53.2482H136.075V49.9969H140.921V48.77H134.602V59.1373Z" fill="#F7F7FA"/>
<path d="M143.62 48.5234H150.429V49.9344H145.153V59.1974H143.62V48.5234Z" fill="#F7F7FA"/>
<path d="M145.215 59.3213H143.498V48.402H150.491V49.9969H145.215V59.3213ZM143.682 59.1373H145.031V49.8129H150.307V48.586H143.682V59.1373Z" fill="#F7F7FA"/>
<path d="M156.625 48.2162C159.753 48.2162 162.269 50.7313 162.269 53.8599C162.269 56.9885 159.753 59.5036 156.625 59.5036C153.496 59.5036 150.981 56.9885 150.981 53.8599C150.981 50.67 153.435 48.2162 156.625 48.2162ZM156.625 58.0313C159.017 58.0313 160.735 56.3137 160.735 53.7985C160.735 51.2834 159.017 49.5658 156.625 49.5658C154.232 49.5658 152.515 51.2834 152.515 53.7985C152.515 56.2523 154.232 58.0313 156.625 58.0313Z" fill="#F7F7FA"/>
<path d="M156.624 59.5661C153.496 59.5661 150.919 56.9896 150.919 53.8611C150.919 50.7325 153.496 48.156 156.624 48.156C159.753 48.156 162.33 50.7325 162.33 53.8611C162.33 56.9896 159.753 59.5661 156.624 59.5661ZM156.624 48.2787C153.557 48.2787 151.103 50.7938 151.103 53.7997C151.103 56.8669 153.619 59.3207 156.624 59.3207C159.692 59.3207 162.146 56.8056 162.146 53.7997C162.146 50.7938 159.692 48.2787 156.624 48.2787ZM156.624 58.1552C154.109 58.1552 152.392 56.3148 152.392 53.8611C152.392 51.3459 154.232 49.5669 156.624 49.5669C159.14 49.5669 160.857 51.2846 160.857 53.8611C160.796 56.3148 159.017 58.1552 156.624 58.1552ZM156.624 49.751C154.232 49.751 152.637 51.4686 152.637 53.8611C152.637 56.2535 154.355 57.9711 156.624 57.9711C159.017 57.9711 160.612 56.2535 160.612 53.8611C160.612 51.4686 159.017 49.751 156.624 49.751Z" fill="#F7F7FA"/>
<path d="M164.722 48.5234H168.648C170.55 48.5234 172.022 49.7503 172.022 51.5907C172.022 53.431 170.611 54.6579 168.648 54.6579H166.256V59.2587H164.722V48.5234ZM168.771 53.1856C169.63 53.1856 170.489 52.6949 170.489 51.5907C170.489 50.4251 169.753 49.9957 168.771 49.9957H166.379V53.247H168.771V53.1856Z" fill="#F7F7FA"/>
<path d="M166.378 59.3213H164.661V48.402H168.648C170.672 48.402 172.083 49.7516 172.083 51.5306C172.083 53.4322 170.672 54.6591 168.648 54.6591H166.378V59.3213ZM164.845 59.1373H166.194V54.5364H168.709C170.611 54.5364 171.961 53.3095 171.961 51.5919C171.961 49.8742 170.611 48.6474 168.709 48.6474H164.906V59.1373H164.845ZM168.771 53.2482H166.256V49.8129H168.771C169.63 49.8129 170.611 50.365 170.611 51.5306C170.488 52.6961 169.63 53.2482 168.771 53.2482ZM166.378 53.0642H168.648C169.384 53.0642 170.243 52.6961 170.243 51.5306C170.243 50.365 169.384 49.9969 168.648 49.9969H166.378V53.0642Z" fill="#F7F7FA"/>
<path d="M179.077 48.2162C182.205 48.2162 184.72 50.7313 184.72 53.8599C184.72 56.9885 182.205 59.5036 179.077 59.5036C175.948 59.5036 173.433 56.9885 173.433 53.8599C173.433 50.67 175.887 48.2162 179.077 48.2162ZM179.077 58.0313C181.469 58.0313 183.187 56.3137 183.187 53.7985C183.187 51.2834 181.469 49.5658 179.077 49.5658C176.684 49.5658 174.966 51.2834 174.966 53.7985C174.966 56.2523 176.684 58.0313 179.077 58.0313Z" fill="#F7F7FA"/>
<path d="M179.077 59.5661C175.949 59.5661 173.372 56.9896 173.372 53.8611C173.372 50.7325 175.949 48.156 179.077 48.156C182.206 48.156 184.782 50.7325 184.782 53.8611C184.782 56.9896 182.206 59.5661 179.077 59.5661ZM179.077 48.2787C176.01 48.2787 173.556 50.7938 173.556 53.7997C173.556 56.8669 176.071 59.3207 179.077 59.3207C182.144 59.3207 184.598 56.8056 184.598 53.7997C184.598 50.7938 182.144 48.2787 179.077 48.2787ZM179.077 58.1552C176.562 58.1552 174.844 56.3148 174.844 53.8611C174.844 51.3459 176.562 49.5669 179.077 49.5669C181.592 49.5669 183.31 51.2846 183.31 53.8611C183.249 56.3148 181.47 58.1552 179.077 58.1552ZM179.077 49.751C176.685 49.751 175.09 51.4686 175.09 53.8611C175.09 56.2535 176.685 57.9711 179.077 57.9711C181.47 57.9711 183.065 56.2535 183.065 53.8611C183.065 51.4686 181.47 49.751 179.077 49.751Z" fill="#F7F7FA"/>
<path d="M187.604 48.5234H194.413V57.7865H195.579V61.4058H194.045V59.1974H187.236V61.4058H185.641V57.7865H186.316C187.052 57.7865 187.543 57.2957 187.543 56.4369V48.5234H187.604ZM192.818 57.7865V49.9344H189.076V56.2529C189.076 56.805 188.892 57.2957 188.524 57.6638H192.818V57.7865Z" fill="#F7F7FA"/>
<path d="M195.579 61.4684H193.862V59.26H187.236V61.4684H185.519V57.665H186.255C186.93 57.665 187.42 57.1743 187.42 56.4381V48.402H194.414V57.665H195.579V61.4684ZM194.107 61.2843H195.457V57.849H194.291V48.586H187.666V56.4381C187.666 57.2969 187.175 57.7877 186.316 57.849H185.764V61.2843H187.114V59.0759H194.107V61.2843ZM192.941 57.849H188.341L188.525 57.665C188.893 57.2969 189.077 56.8062 189.077 56.2541V49.8129H193.003V57.849H192.941ZM188.709 57.665H192.696V50.1196H189.138V56.3154C189.077 56.7448 189.015 57.1743 188.709 57.665Z" fill="#F7F7FA"/>
<path d="M202.388 48.2162C203.983 48.2162 205.639 48.9523 206.682 50.3019L205.639 51.3448C204.903 50.3019 203.922 49.7498 202.511 49.7498C199.996 49.7498 198.523 51.5901 198.523 53.9826C198.523 56.375 200.057 58.2154 202.634 58.2154C204.045 58.2154 205.026 57.6633 205.762 56.6204L206.805 57.6633C205.762 59.0128 204.106 59.749 202.511 59.749C199.26 59.749 196.99 57.2338 196.99 54.1053C196.867 50.67 199.26 48.2162 202.388 48.2162Z" fill="#F7F7FA"/>
<path d="M202.388 59.5661C199.136 59.5661 196.744 57.051 196.744 53.8611C196.744 50.6098 199.259 48.156 202.388 48.156C204.105 48.156 205.762 48.8921 206.682 50.2417L206.804 50.3644L205.639 51.53L205.516 51.4073C204.78 50.3644 203.676 49.8123 202.449 49.8123C200.179 49.8123 198.523 51.53 198.523 53.9224C198.523 56.4375 200.118 58.0325 202.51 58.0325C203.86 58.0325 204.78 57.4804 205.578 56.4375L205.7 56.3148L206.866 57.4804L206.743 57.6031C205.762 58.83 204.105 59.5661 202.388 59.5661ZM202.388 48.2787C199.32 48.2787 196.928 50.6711 196.928 53.7997C196.928 56.9283 199.32 59.3207 202.388 59.3207C203.983 59.3207 205.516 58.5846 206.498 57.419L205.639 56.5602C204.903 57.6031 203.799 58.1552 202.51 58.1552C199.995 58.1552 198.278 56.4375 198.278 53.8611C198.278 51.3459 199.995 49.5669 202.388 49.5669C203.737 49.5669 204.78 50.119 205.516 51.1619L206.375 50.3031C205.455 48.9535 203.921 48.2787 202.388 48.2787Z" fill="#F7F7FA"/>
<path d="M216.375 48.5234L211.774 53.7991L216.559 59.2587H214.534L210.608 54.6579V59.2587H209.013V48.5234H210.608V52.9403L214.534 48.5234H216.375Z" fill="#F7F7FA"/>
<path d="M216.743 59.3213H214.534L210.731 54.9045V59.3213H209.013V48.402H210.731V52.6348L214.534 48.402H216.62L211.958 53.739L216.743 59.3213ZM214.657 59.1373H216.375L211.712 53.8003L211.835 53.6776L216.313 48.5247H214.718L210.608 53.1255V48.5247H209.259V59.0146H210.608V54.3524L210.792 54.5364L214.657 59.1373Z" fill="#F7F7FA"/>
<path d="M222.754 48.2162C225.883 48.2162 228.398 50.7313 228.398 53.8599C228.398 56.9885 225.883 59.5036 222.754 59.5036C219.626 59.5036 217.111 56.9885 217.111 53.8599C217.111 50.67 219.626 48.2162 222.754 48.2162ZM222.754 58.0313C225.147 58.0313 226.864 56.3137 226.864 53.7985C226.864 51.2834 225.147 49.5658 222.754 49.5658C220.362 49.5658 218.644 51.2834 218.644 53.7985C218.644 56.2523 220.362 58.0313 222.754 58.0313Z" fill="#F7F7FA"/>
<path d="M222.755 59.5661C219.626 59.5661 217.05 56.9896 217.05 53.8611C217.05 50.7325 219.626 48.156 222.755 48.156C225.883 48.156 228.46 50.7325 228.46 53.8611C228.46 56.9896 225.883 59.5661 222.755 59.5661ZM222.755 48.2787C219.688 48.2787 217.234 50.7938 217.234 53.7997C217.234 56.8669 219.749 59.3207 222.755 59.3207C225.822 59.3207 228.276 56.8056 228.276 53.7997C228.276 50.7938 225.822 48.2787 222.755 48.2787ZM222.755 58.1552C220.24 58.1552 218.522 56.3148 218.522 53.8611C218.522 51.3459 220.362 49.5669 222.755 49.5669C225.27 49.5669 226.988 51.2846 226.988 53.8611C226.988 56.3148 225.209 58.1552 222.755 58.1552ZM222.755 49.751C220.362 49.751 218.767 51.4686 218.767 53.8611C218.767 56.2535 220.485 57.9711 222.755 57.9711C225.147 57.9711 226.742 56.2535 226.742 53.8611C226.742 51.4686 225.147 49.751 222.755 49.751Z" fill="#F7F7FA"/>
<path d="M232.385 56.4373L236.986 48.5239H238.704V59.1978H237.17V51.1004L232.569 59.1978H230.852V48.5239H232.385V56.4373ZM232.999 45.8247V45.702H234.226C234.226 46.0087 234.41 46.4382 234.962 46.4382C235.514 46.4382 235.698 46.0701 235.698 45.702H236.925V45.8247C236.925 46.6835 236.25 47.6651 234.901 47.6651C233.674 47.6651 232.999 46.6835 232.999 45.8247Z" fill="#F7F7FA"/>
<path d="M238.827 59.3197H237.109V51.4676L232.692 59.3197H230.852V48.4003H232.569V56.0684L236.986 48.4003H238.827V59.3197ZM237.293 59.1356H238.643V48.5844H237.109L232.447 56.8046V48.5844H231.097V59.0743H232.631L237.293 50.7314V59.1356ZM234.901 47.7256C233.551 47.7256 232.815 46.744 232.815 45.8239V45.6398H234.226V45.7012C234.226 46.0079 234.348 46.376 234.901 46.376C235.391 46.376 235.575 46.0079 235.575 45.7012V45.5785H235.698H237.048V45.7625C236.986 46.8054 236.25 47.7256 234.901 47.7256ZM233.06 45.8239C233.06 46.6827 233.735 47.5415 234.962 47.5415C236.189 47.5415 236.864 46.6827 236.864 45.8239H235.821C235.821 46.1919 235.514 46.56 234.962 46.56C234.41 46.56 234.226 46.1919 234.103 45.8239H233.06Z" fill="#F7F7FA"/>
<path d="M104.298 65.8226C107.427 65.8226 109.942 68.3378 109.942 71.4663C109.942 74.5949 107.427 77.11 104.298 77.11C101.17 77.11 98.6545 74.5949 98.6545 71.4663C98.6545 68.2764 101.17 65.8226 104.298 65.8226ZM104.298 75.6378C106.691 75.6378 108.408 73.9201 108.408 71.405C108.408 68.8899 106.691 67.1722 104.298 67.1722C101.906 67.1722 100.188 68.8899 100.188 71.405C100.188 73.8588 101.844 75.6378 104.298 75.6378Z" fill="#F7F7FA"/>
<path d="M104.298 77.1724C101.169 77.1724 98.5928 74.596 98.5928 71.4674C98.5928 68.3388 101.169 65.7623 104.298 65.7623C107.426 65.7623 110.003 68.3388 110.003 71.4674C110.064 74.596 107.488 77.1724 104.298 77.1724ZM104.298 65.885C101.231 65.885 98.7768 68.4001 98.7768 71.406C98.7768 74.4733 101.292 76.927 104.298 76.927C107.365 76.927 109.819 74.4119 109.819 71.406C109.88 68.4001 107.365 65.885 104.298 65.885ZM104.298 75.7615C101.783 75.7615 100.065 73.9212 100.065 71.4674C100.065 68.9523 101.783 67.1733 104.298 67.1733C106.813 67.1733 108.531 68.8909 108.531 71.4674C108.531 73.9212 106.69 75.7615 104.298 75.7615ZM104.298 67.3573C101.905 67.3573 100.31 69.0749 100.31 71.4674C100.31 73.8598 101.905 75.5775 104.298 75.5775C106.69 75.5775 108.285 73.8598 108.285 71.4674C108.347 69.0749 106.629 67.3573 104.298 67.3573Z" fill="#F7F7FA"/>
<path d="M112.457 66.0676H119.266V67.4786H113.99V70.5458H116.505C118.407 70.5458 119.879 71.7727 119.879 73.613C119.879 75.4534 118.468 76.6802 116.505 76.6802H112.518V66.0676H112.457ZM116.567 75.3307C117.425 75.3307 118.284 74.8399 118.284 73.7357C118.284 72.6315 117.548 72.1407 116.567 72.1407H113.99V75.392H116.567V75.3307Z" fill="#F7F7FA"/>
<path d="M116.444 76.8644H112.334V65.9451H119.327V67.54H114.052V70.4232H116.444C118.468 70.4232 119.879 71.7728 119.879 73.5518C119.879 75.3308 118.468 76.8644 116.444 76.8644ZM112.518 76.6804H116.444C118.346 76.6804 119.695 75.4535 119.695 73.7358C119.695 72.0182 118.346 70.7913 116.444 70.7913H113.868V67.54H119.143V66.1904H112.518V76.6804ZM116.567 75.4535H113.868V72.0182H116.567C117.426 72.0182 118.407 72.5703 118.407 73.7358C118.407 74.9014 117.426 75.4535 116.567 75.4535ZM114.052 75.2694H116.567C117.303 75.2694 118.162 74.9014 118.162 73.7358C118.162 72.5703 117.303 72.2022 116.567 72.2022H114.052V75.2694Z" fill="#F7F7FA"/>
<path d="M122.763 66.0676H129.633V76.8029H128.1V67.5399H124.296V74.3491C124.296 75.7601 123.315 77.0483 121.597 77.0483L121.29 76.8643V75.5147H121.597C122.333 75.5147 122.763 75.0239 122.763 74.3491V66.0676Z" fill="#F7F7FA"/>
<path d="M121.536 76.9861L121.168 76.802V75.3911H121.536C122.211 75.3911 122.579 75.023 122.579 74.3482V66.0054H129.634V76.9247H127.916V67.6617H124.297V74.3482C124.419 75.6365 123.56 76.9861 121.536 76.9861ZM121.352 76.6793L121.536 76.802C123.376 76.802 124.113 75.4524 124.113 74.2256V67.355H128.1V76.618H129.449V66.1281H122.763V74.2256C122.763 74.9617 122.272 75.4524 121.536 75.4524H121.352V76.6793Z" fill="#F7F7FA"/>
<path d="M135.646 66.0676H137.241L140.86 76.8029H139.326L138.345 74.0424H134.357L133.376 76.8029H131.842L135.646 66.0676ZM135.032 72.5088H137.977L136.443 68.092L135.032 72.5088Z" fill="#F7F7FA"/>
<path d="M141.105 76.8647H139.387V76.742L138.405 73.9815H134.602L133.62 76.742H131.903V76.6193L135.645 65.8226H137.363V65.9453L141.105 76.8647ZM139.51 76.6806H140.859L137.24 66.1907H135.829L132.21 76.6806H133.559L134.541 73.9201H138.651V74.0428L139.51 76.6806ZM138.037 72.5705H134.786L136.381 67.7857L138.037 72.5705ZM135.093 72.3865H137.792L136.442 68.3991L135.093 72.3865Z" fill="#F7F7FA"/>
<path d="M147.546 65.8226C149.141 65.8226 150.797 66.5588 151.84 67.9083L150.797 68.9512C150.061 67.9083 149.079 67.3562 147.668 67.3562C145.153 67.3562 143.681 69.1966 143.681 71.589C143.681 73.9815 145.215 75.8218 147.791 75.8218C149.202 75.8218 150.184 75.2697 150.92 74.2268L151.963 75.2697C150.92 76.6193 149.263 77.3554 147.668 77.3554C144.417 77.3554 142.147 74.8403 142.147 71.7117C141.963 68.2764 144.356 65.8226 147.546 65.8226Z" fill="#F7F7FA"/>
<path d="M147.546 77.1724C144.294 77.1724 141.902 74.6573 141.902 71.4674C141.902 68.2161 144.417 65.7623 147.546 65.7623C149.263 65.7623 150.92 66.4985 151.84 67.848L151.962 67.9707L150.797 69.1363L150.674 69.0136C149.938 67.9707 148.834 67.4186 147.607 67.4186C145.337 67.4186 143.681 69.1363 143.681 71.5287C143.681 74.0439 145.276 75.6388 147.668 75.6388C149.018 75.6388 149.938 75.0867 150.735 74.0439L150.858 73.9212L152.024 75.0867L151.901 75.2094C150.858 76.4363 149.263 77.1724 147.546 77.1724ZM147.546 65.885C144.478 65.885 142.086 68.4001 142.086 71.406C142.086 74.5346 144.478 76.927 147.546 76.927C149.141 76.927 150.674 76.1909 151.656 75.0254L150.797 74.1665C150.061 75.2094 148.956 75.7615 147.668 75.7615C145.153 75.7615 143.435 74.0439 143.435 71.4674C143.435 68.9523 145.153 67.1733 147.546 67.1733C148.895 67.1733 149.938 67.7254 150.674 68.7682L151.533 67.9094C150.613 66.5598 149.079 65.885 147.546 65.885Z" fill="#F7F7FA"/>
<path d="M153.19 66.0676H160.674V67.4786H157.729V76.7416H156.196V67.4786H153.251V66.0676H153.19Z" fill="#F7F7FA"/>
<path d="M157.729 76.8634H156.012V67.6003H153.067V66.0054H160.735V67.6003H157.791V76.8634H157.729ZM156.196 76.6793H157.545V67.4163H160.49V66.1894H153.251V67.4163H156.196V76.6793Z" fill="#F7F7FA"/>
<path d="M164.231 74.0433L168.71 66.1299H170.427V76.8652H168.894V68.7677L164.293 76.8652H162.698V66.1299H164.231V74.0433Z" fill="#F7F7FA"/>
<path d="M170.55 76.8644H168.832V69.0123L164.416 76.8644H162.575V65.9451H164.293V73.6131L168.71 65.9451H170.55V76.8644ZM169.016 76.6804H170.366V66.1904H168.832L164.17 74.4106V66.1904H162.821V76.6804H164.354L169.016 68.3375V76.6804Z" fill="#F7F7FA"/>
<path d="M77.9199 22.3294L67.246 16.0723L50.1308 26.0101V6.25715L39.5182 0.122689V0L39.3955 0.122689L28.7829 6.25715V26.1328L11.4837 16.195L0.993783 22.3294H0.871094V22.3908V34.8437L18.0476 44.5975L0.871094 54.6581V66.8043V66.927H0.993783L11.7291 73.1228L28.8442 63.185V82.9993L39.4569 89.1337H39.5795L50.1922 82.9993V63.1236L67.4913 73.0614L77.9813 66.927H78.104V66.8043V54.3513L60.9275 44.5362L78.104 34.5984V22.3908V22.2681H77.9199V22.3294Z" fill="#F7F7FA"/>
</svg>
