<svg width="27" height="17" viewBox="0 0 27 17" fill="none" xmlns="http://www.w3.org/2000/svg">
<path d="M0 8.5C0 12.9656 3.28846 16 7.5 16C11.7115 16 15 12.9656 15 8.5C15 4.03435 11.7115 1 7.5 1C3.28846 1 0 4.03435 0 8.5ZM3.63462 8.5C3.63462 5.92367 5.19231 4.20611 7.5 4.20611C9.80769 4.20611 11.3654 5.92367 11.3654 8.5C11.3654 11.0763 9.80769 12.7939 7.5 12.7939C5.19231 12.7939 3.63462 11.0763 3.63462 8.5Z" fill="#1300F0"/>
<path d="M20.6005 10.4092L20.6005 10.4092L20.6028 10.4096C21.2656 10.5222 21.7172 10.6701 21.9979 10.8628C22.2527 11.0378 22.3695 11.2495 22.3695 11.563C22.3695 11.8631 22.2244 12.1422 21.8949 12.36C21.5565 12.5838 21.0218 12.7401 20.2822 12.7401C18.8888 12.7401 17.378 12.2259 16.2537 10.46C15.9919 10.0489 15.4291 9.88305 14.9901 10.1701L13.2462 11.3106C12.8568 11.5652 12.7195 12.0977 12.9968 12.5046C14.457 14.6471 16.9834 16.34 20.3361 16.34C22.043 16.34 23.5394 15.8574 24.6163 14.9829C25.6988 14.1039 26.34 12.8412 26.34 11.334C26.34 9.81879 25.7117 8.75178 24.6893 8.01008C23.6883 7.28398 22.3247 6.87958 20.8538 6.61939L19.2368 6.33335C19.2366 6.33331 19.2364 6.33327 19.2361 6.33323C18.6165 6.22124 18.1893 6.07417 17.923 5.89062C17.6784 5.72203 17.5744 5.52872 17.5744 5.26527C17.5744 4.98005 17.6836 4.74778 17.9156 4.57594C18.1599 4.39493 18.571 4.25986 19.2033 4.25986C20.338 4.25986 21.6468 4.69623 22.9985 6.17356C23.3277 6.53329 23.9044 6.58728 24.2802 6.23533L25.7673 4.8427C26.1126 4.51932 26.1476 3.96557 25.8031 3.61278C24.2404 2.01244 22.0488 0.659991 19.0415 0.659991C17.4416 0.659991 16.0826 1.11462 15.118 1.94454C14.1486 2.77855 13.604 3.96971 13.604 5.37977C13.604 6.79629 14.1404 7.86165 15.1074 8.63336C16.0562 9.39053 17.3965 9.84725 18.9827 10.1231C18.9829 10.1231 18.9831 10.1231 18.9833 10.1232L20.6005 10.4092Z" fill="#FFE925" stroke="#1300F0" stroke-width="0.680019" stroke-linejoin="round"/>
</svg>
