<svg viewBox="0 0 15 15"  xmlns="http://www.w3.org/2000/svg">
<path opacity="0.8" fill-rule="evenodd" clip-rule="evenodd" d="M0 6.97008V14.2105C-1.22443e-06 14.4194 0.0827586 14.6198 0.23015 14.7678C0.377541 14.9158 0.577544 14.9993 0.786344 15H8.02558C8.13574 15.0006 8.24356 14.9683 8.33529 14.9073C8.42701 14.8462 8.49847 14.7592 8.54053 14.6574C8.58259 14.5555 8.59334 14.4434 8.57141 14.3354C8.54947 14.2274 8.49586 14.1284 8.4174 14.051L0.948478 6.57534C0.870482 6.49801 0.771367 6.44548 0.663607 6.42437C0.555847 6.40327 0.444254 6.41452 0.342869 6.45671C0.241484 6.4989 0.154836 6.57016 0.0938267 6.6615C0.0328176 6.75285 0.000173092 6.86021 0 6.97008ZM12.0654 0C12.1752 0.000914078 12.2823 0.0341353 12.3733 0.0955235C12.4644 0.156912 12.5354 0.243751 12.5774 0.34522C12.6195 0.44669 12.6308 0.558301 12.6099 0.666146C12.589 0.77399 12.5368 0.873301 12.4599 0.951695L9.71717 3.69052C9.63007 3.77606 9.56122 3.87838 9.51477 3.99131C9.46832 4.10423 9.44525 4.22541 9.44695 4.34751V8.11103C9.44677 8.22089 9.41413 8.32825 9.35312 8.4196C9.29211 8.51094 9.20546 8.5822 9.10408 8.62439C9.00269 8.66659 8.8911 8.67784 8.78334 8.65673C8.67558 8.63562 8.57647 8.58309 8.49847 8.50576L0.948478 0.951695C0.870425 0.873959 0.81717 0.774804 0.795454 0.666777C0.773739 0.55875 0.784537 0.446705 0.826484 0.34482C0.86843 0.242936 0.93964 0.15579 1.0311 0.0944096C1.12256 0.0330294 1.23017 0.00017489 1.3403 0H12.0654ZM10.2333 15H14.2137C14.4225 14.9993 14.6225 14.9158 14.7698 14.7678C14.9172 14.6198 15 14.4194 15 14.2105V5.39383C14.9998 5.28397 14.9672 5.17661 14.9062 5.08526C14.8452 4.99391 14.7585 4.92266 14.6571 4.88047C14.5557 4.83827 14.4442 4.82702 14.3364 4.84813C14.2286 4.86924 14.1295 4.92176 14.0515 4.99909L9.72797 9.32498C9.64121 9.4102 9.57255 9.51209 9.52611 9.62452C9.47968 9.73696 9.45642 9.85762 9.45775 9.97927V14.2159C9.45913 14.4221 9.54103 14.6195 9.68595 14.766C9.83087 14.9125 10.0273 14.9965 10.2333 15Z"/>
</svg>
