<svg viewBox="0 0 122 20" fill="none" xmlns="http://www.w3.org/2000/svg">
<path fill-rule="evenodd" clip-rule="evenodd" d="M0 9.76743V18.9254C-1.54954e-06 19.1897 0.104733 19.4431 0.291259 19.6303C0.477786 19.8175 0.730894 19.9231 0.995135 19.924H10.1565C10.2959 19.9247 10.4324 19.8839 10.5485 19.8067C10.6646 19.7295 10.755 19.6195 10.8082 19.4906C10.8615 19.3618 10.8751 19.22 10.8473 19.0834C10.8195 18.9468 10.7517 18.8215 10.6524 18.7237L1.20032 9.26815C1.10161 9.17034 0.976182 9.10391 0.839809 9.07721C0.703436 9.05051 0.562213 9.06474 0.433908 9.11811C0.305603 9.17148 0.195948 9.2616 0.11874 9.37714C0.0415314 9.49268 0.000219052 9.62847 0 9.76743ZM15.269 0.951416C15.408 0.952572 15.5435 0.994592 15.6587 1.07224C15.7739 1.14988 15.8638 1.25972 15.917 1.38806C15.9702 1.51641 15.9845 1.65758 15.9581 1.79398C15.9316 1.93039 15.8656 2.056 15.7683 2.15516L12.2973 5.61932C12.1871 5.72752 12.0999 5.85694 12.0411 5.99978C11.9824 6.14261 11.9532 6.29588 11.9553 6.45031V11.2106C11.9551 11.3495 11.9138 11.4853 11.8366 11.6008C11.7594 11.7164 11.6497 11.8065 11.5214 11.8599C11.3931 11.9132 11.2519 11.9275 11.1155 11.9008C10.9791 11.8741 10.8537 11.8076 10.755 11.7098L1.20032 2.15516C1.10154 2.05683 1.03415 1.93142 1.00666 1.79478C0.979183 1.65814 0.992848 1.51642 1.04593 1.38756C1.09902 1.25869 1.18913 1.14846 1.30488 1.07083C1.42063 0.993193 1.5568 0.951637 1.69618 0.951416H15.269ZM12.9505 19.924H17.9877C18.2519 19.9231 18.505 19.8175 18.6916 19.6303C18.8781 19.4431 18.9828 19.1897 18.9828 18.9254V7.77374C18.9826 7.63478 18.9413 7.49898 18.8641 7.38345C18.7869 7.26791 18.6772 7.17778 18.5489 7.12441C18.4206 7.07105 18.2794 7.05682 18.143 7.08352C18.0066 7.11021 17.8812 7.17665 17.7825 7.27446L12.311 12.746C12.2012 12.8538 12.1143 12.9827 12.0555 13.1249C11.9967 13.2671 11.9673 13.4197 11.969 13.5736V18.9323C11.9707 19.193 12.0744 19.4427 12.2578 19.628C12.4412 19.8133 12.6898 19.9195 12.9505 19.924Z" fill="#F7F7FA"/>
<path fill-rule="evenodd" clip-rule="evenodd" d="M121.488 15.7861C121.154 16.0546 120.767 16.2503 120.353 16.3607C119.892 16.4895 119.416 16.554 118.937 16.5522C117.692 16.5522 116.728 16.2102 116.047 15.5741C115.367 14.9381 115.021 13.9737 115.021 12.7255V7.25397H112.97V6.74785L117.159 2.54845H117.692V5.14059H120.729V7.26423H117.692V12.664C117.66 13.1208 117.804 13.5727 118.096 13.9258C118.248 14.0781 118.431 14.1959 118.633 14.2714C118.835 14.3469 119.05 14.3783 119.265 14.3636C119.8 14.3824 120.325 14.217 120.753 13.895L121.495 15.7861H121.488ZM97.2766 14.6132C97.8974 14.6252 98.5098 14.468 99.048 14.1584C99.5567 13.8655 99.9446 13.4013 100.142 12.8486V11.5354H97.4066C95.8768 11.5354 95.1119 12.0381 95.1119 13.0435C95.1063 13.2675 95.1557 13.4893 95.2559 13.6897C95.3561 13.89 95.5039 14.0627 95.6864 14.1926C96.1581 14.5018 96.717 14.6505 97.28 14.6166L97.2766 14.6132ZM97.6357 4.92515C99.3068 4.92515 100.586 5.32525 101.473 6.12546C102.359 6.92568 102.801 8.13398 102.796 9.75036V16.4017H100.289V15.0338C99.9482 15.5427 99.4639 15.9389 98.8976 16.1726C98.2058 16.4507 97.4645 16.5845 96.7192 16.5658C95.9532 16.5821 95.1926 16.4328 94.4895 16.1281C93.8921 15.8731 93.3797 15.4532 93.0122 14.9175C92.6639 14.3996 92.4826 13.7874 92.4924 13.1632C92.4764 12.6942 92.5708 12.2279 92.768 11.802C92.9652 11.3761 93.2597 11.0025 93.6278 10.7113C94.387 10.0958 95.5804 9.78798 97.2082 9.78798H100.139V9.61699C100.16 9.27867 100.108 8.93971 99.9851 8.62374C99.8623 8.30777 99.672 8.02238 99.4276 7.78744C98.9557 7.3634 98.2478 7.15138 97.3142 7.15138C96.6756 7.1516 96.0409 7.252 95.4334 7.4489C94.8647 7.62312 94.3343 7.90397 93.8706 8.27647L92.8447 6.34433C93.4893 5.86597 94.2177 5.51223 94.9922 5.30132C95.8564 5.06369 96.7497 4.94858 97.646 4.95935L97.6357 4.92515ZM76.8541 16.5522C75.9426 16.5521 75.0352 16.4302 74.1559 16.1897C73.4077 16.0082 72.6963 15.6993 72.0528 15.2766L73.0787 13.259C73.647 13.6232 74.2674 13.8988 74.9185 14.0763C75.6051 14.2774 76.3165 14.381 77.0319 14.3841C78.6278 14.3841 79.4257 13.9657 79.4257 13.129C79.4313 12.9434 79.3748 12.7612 79.2652 12.6113C79.1555 12.4614 78.999 12.3524 78.8204 12.3015C78.188 12.0889 77.5363 11.9389 76.8746 11.8535C76.1027 11.7455 75.3393 11.5833 74.5902 11.3679C74.0055 11.1832 73.4787 10.8497 73.0616 10.4001C72.6046 9.86646 72.3729 9.17611 72.4153 8.47481C72.4043 7.96628 72.522 7.4632 72.7576 7.01239C72.9931 6.56157 73.3389 6.17766 73.7627 5.89634C74.6609 5.25116 75.8761 4.92856 77.4081 4.92856C78.194 4.92997 78.9773 5.01828 79.7438 5.19188C80.4143 5.32892 81.0594 5.57008 81.6554 5.9066L80.6295 7.92424C79.6442 7.35018 78.5209 7.05578 77.3807 7.07273C76.7697 7.03457 76.159 7.15224 75.6059 7.4147C75.4275 7.49488 75.2757 7.62441 75.1685 7.788C75.0612 7.95159 75.003 8.14242 75.0006 8.33802C74.9953 8.53836 75.0555 8.73497 75.1722 8.89793C75.2889 9.06089 75.4556 9.18129 75.6469 9.24082C76.2962 9.47886 76.9692 9.64626 77.6543 9.7401C78.4089 9.85209 79.155 10.0155 79.8874 10.2291C80.4591 10.4072 80.975 10.7299 81.3852 11.1661C81.8307 11.6823 82.0554 12.3529 82.011 13.0333C82.0204 13.54 81.8995 14.0407 81.66 14.4874C81.4205 14.934 81.0704 15.3117 80.6431 15.5844C79.7312 16.2205 78.4773 16.5396 76.8815 16.5419L76.8541 16.5522ZM67.019 6.71365C67.7827 5.5236 69.1278 4.92856 71.0543 4.92856V7.45574C70.8513 7.41692 70.6453 7.39632 70.4387 7.39418C69.9946 7.36834 69.5499 7.43527 69.1331 7.5907C68.7163 7.74614 68.3363 7.98667 68.0176 8.29698C67.4362 8.89885 67.1455 9.76632 67.1455 10.8994V16.4017H64.4953V5.0551H67.0258V6.71365H67.019ZM56.6881 7.05563C55.9004 7.03395 55.1322 7.30297 54.5302 7.81138C53.9361 8.32447 53.5535 9.03976 53.4564 9.81875H59.8957C59.8081 9.04663 59.4363 8.33474 58.8527 7.82164C58.2528 7.30389 57.4802 7.03048 56.6881 7.05563ZM62.4229 10.7968C62.4229 10.9815 62.4229 11.2414 62.3819 11.5833H53.4906C53.6221 12.3806 54.0618 13.0943 54.7149 13.5702C55.4297 14.0766 56.2913 14.3338 57.1668 14.302C57.737 14.3202 58.3048 14.2203 58.8345 14.0084C59.3641 13.7965 59.8442 13.4773 60.2446 13.0709L61.6706 14.7055C61.1492 15.3154 60.484 15.7856 59.735 16.0734C58.7786 16.4248 57.7616 16.5813 56.7439 16.5337C55.7261 16.4861 54.7281 16.2354 53.8087 15.7964C52.8913 15.3307 52.1269 14.6115 51.6064 13.7241C51.083 12.8099 50.816 11.7714 50.8335 10.7181C50.8176 9.67418 51.0771 8.64445 51.5858 7.73273C52.0758 6.8597 52.8009 6.14169 53.6787 5.66039C54.6044 5.15666 55.6446 4.90101 56.6983 4.91831C57.7324 4.89997 58.7533 5.15224 59.6598 5.65012C60.5247 6.12527 61.2365 6.83699 61.7116 7.70195C62.2157 8.64804 62.4677 9.70797 62.4434 10.7797L62.4229 10.7968ZM50.4197 5.05852L45.9399 16.4051H43.2041L38.7243 5.05852H41.4874L44.6267 13.4744L47.872 5.05852H50.4197ZM35.9612 3.18793C35.5137 3.20065 35.079 3.03735 34.7506 2.73311C34.5961 2.58675 34.4731 2.41045 34.389 2.21495C34.3049 2.01946 34.2615 1.80887 34.2615 1.59606C34.2615 1.38324 34.3049 1.17266 34.389 0.977163C34.4731 0.781667 34.5961 0.60536 34.7506 0.459004C35.0785 0.153518 35.5132 -0.011035 35.9612 0.000761512C36.4057 -0.0123454 36.8385 0.144151 37.1718 0.438487C37.3289 0.573563 37.4542 0.741713 37.5388 0.930897C37.6233 1.12008 37.665 1.32562 37.6608 1.53279C37.6651 1.75163 37.625 1.96908 37.5426 2.1719C37.4603 2.37472 37.3376 2.55868 37.182 2.71259C37.0217 2.8709 36.8307 2.99473 36.6207 3.07648C36.4108 3.15823 36.1863 3.19615 35.9612 3.18793ZM34.6241 5.05852H37.2778V16.4051H34.6241V5.0551V5.05852ZM28.431 6.71708C29.1947 5.52702 30.5398 4.93199 32.4662 4.93199V7.45915C32.2633 7.42034 32.0573 7.39974 31.8507 7.3976C31.4066 7.37176 30.9619 7.43869 30.5451 7.59413C30.1282 7.74956 29.7483 7.99009 29.4295 8.3004C28.8482 8.90227 28.5575 9.76974 28.5575 10.9028V16.4051H25.9004V5.0551H28.431V6.71365V6.71708ZM91.1143 15.7896C90.779 16.0585 90.3911 16.2542 89.9755 16.3641C89.516 16.4933 89.0406 16.5578 88.5632 16.5556C87.3184 16.5556 86.3541 16.2136 85.6735 15.5776C84.993 14.9415 84.6476 13.9771 84.6476 12.7289V7.25739H82.5958V6.74785L86.7849 2.56212H87.315V5.15427H90.3551V7.27791H87.315V12.664C87.2805 13.1215 87.4238 13.5747 87.7151 13.9292C87.867 14.0812 88.0496 14.1989 88.2507 14.2744C88.4519 14.3499 88.6669 14.3815 88.8812 14.367C89.4161 14.3859 89.9413 14.2205 90.3688 13.8985L91.1143 15.7896ZM107.758 6.71708C108.524 5.52702 109.87 4.93199 111.797 4.93199V7.45915C111.594 7.4205 111.388 7.3999 111.181 7.3976C110.737 7.3717 110.291 7.43859 109.874 7.59401C109.457 7.74943 109.076 7.98999 108.757 8.3004C108.178 8.90227 107.888 9.76974 107.888 10.9028V16.4051H105.231V5.0551H107.758V6.71708Z" fill="#F7F7FA"/>
</svg>
