<svg width="295" height="103" viewBox="0 0 295 103" fill="none" xmlns="http://www.w3.org/2000/svg">
<path d="M59.611 58.403C58.6688 59.4486 57.5294 60.2977 56.2581 60.9018C54.9869 61.5058 53.6088 61.8528 52.2031 61.9228C50.7974 61.9928 49.3917 61.7845 48.0667 61.3097C46.7417 60.835 45.5235 60.1033 44.4821 59.1565C42.906 57.7342 41.7874 55.8762 41.2678 53.8178C40.7483 51.7594 40.8512 49.5931 41.5636 47.5932C42.2759 45.5933 43.5657 43.8497 45.2696 42.5833C46.9734 41.3169 49.0148 40.5845 51.1351 40.4789C53.2554 40.3733 55.3594 40.8992 57.1807 41.9901C59.002 43.081 60.4586 44.6878 61.3661 46.607C62.2737 48.5262 62.5914 50.6715 62.2789 52.7714C61.9665 54.8712 61.038 56.8311 59.611 58.403Z" fill="#F7F7FA"/>
<path d="M26.8579 51.5637C26.8579 51.5637 32.8064 48.5301 36.2763 35.0073C39.7462 21.4845 52.6147 15.1791 52.6147 15.1791C52.6147 15.1791 24.9544 -12.2433 4.01587 30.7839C9.25421 32.0544 14.0901 34.6187 18.0807 38.2422C22.0714 41.8656 25.0892 46.4323 26.8579 51.5241" fill="#F7F7FA"/>
<path d="M29.3562 4.64949C29.3562 4.64949 50.6715 0.465776 63.2822 27.2338C63.2822 27.2338 77.9947 32.0124 91.0416 18.331C91.0416 18.331 69.4091 -11.2329 29.4553 4.72882" fill="#F7F7FA"/>
<path d="M64.1345 71.7885C64.1345 71.7885 58.5033 68.1402 45.0796 71.9075C31.656 75.6749 19.7789 67.6643 19.7789 67.6643C19.7789 67.6643 9.86482 105.338 57.5912 101.927C56.0732 96.7574 55.8768 91.2892 57.02 86.0236C58.1631 80.7581 60.6094 75.8636 64.1345 71.7885Z" fill="#F7F7FA"/>
<path d="M22.2368 93.0832C22.2368 93.0832 7.96054 76.7249 24.7748 52.4354C24.7748 52.4354 21.5428 37.3264 3.22161 32.9642C3.22161 32.9642 -11.5702 66.4738 22.2368 93.0832Z" fill="#F7F7FA"/>
<path d="M63.0643 29.5544C63.0643 29.5544 62.7273 36.2562 72.7008 45.9919C82.6744 55.7275 81.683 70.0236 81.683 70.0236C81.683 70.0236 119.356 59.7923 92.4298 20.136C88.7171 24.0417 84.0818 26.9512 78.9504 28.597C73.8191 30.2428 68.3562 30.572 63.0643 29.5544Z" fill="#F7F7FA"/>
<path d="M102.463 55.1718C102.463 55.1718 95.4438 75.7335 65.9791 73.3145C65.9791 73.3145 54.4986 83.6846 59.8919 101.708C59.8919 101.708 96.3162 97.7428 102.443 55.1718" fill="#F7F7FA"/>
<path d="M126.512 63.5784H121.119V38.4165H129.784C136.109 38.4165 140.095 41.0338 140.095 46.8236C140.095 52.6134 135.99 55.7066 129.269 55.7066H126.512V63.5784ZM126.393 51.0272H129.427C132.659 51.0272 134.602 49.778 134.602 47.0616C134.602 44.3451 132.758 43.0959 129.467 43.0959H126.393V51.0272Z" fill="#F7F7FA"/>
<path d="M144.022 51.0273C144.022 42.5805 149.158 38.02 156.098 38.02C163.87 38.02 168.351 42.9374 168.351 51.0273C168.351 59.9698 163.137 64.0346 156.236 64.0346C148.959 64.0346 144.022 59.4741 144.022 51.0273ZM162.641 51.0273C162.641 45.3168 160.024 42.7589 156.098 42.7589C152.548 42.7589 149.733 45.4159 149.733 51.0273C149.733 56.6387 152.647 59.2957 156.435 59.2957C160.222 59.2957 162.641 56.6783 162.641 51.0273Z" fill="#F7F7FA"/>
<path d="M192.342 62.5675C190.245 63.6278 187.907 64.12 185.561 63.9951C177.867 63.9951 172.791 59.5932 172.791 51.3249C172.791 42.66 177.867 37.9806 186.096 37.9806C188.263 37.9408 190.416 38.3456 192.421 39.1702L191.231 43.691C189.815 43.229 188.339 42.9753 186.849 42.9376C181.892 42.9376 178.502 45.4161 178.502 50.9879C178.502 56.5596 181.734 58.9191 186.81 58.9191C188.343 58.8613 189.853 58.5323 191.271 57.9475L192.342 62.5675Z" fill="#F7F7FA"/>
<path d="M212.091 56.8567H201.344L198.826 63.5784H195.554L205.151 38.4165H208.383L217.801 63.5784H214.431L212.091 56.8567ZM202.395 53.9023H211.04L206.836 42.0054H206.757L202.395 53.9023Z" fill="#F7F7FA"/>
<path d="M229.103 63.5784H225.871V41.4304H218.435V38.4165H236.538V41.4304H229.103V63.5784Z" fill="#F7F7FA"/>
<path d="M239.971 51.0274C239.971 42.9772 244.611 38.0995 251.253 38.0995C258.729 38.0995 262.754 43.4134 262.754 51.0274C262.754 59.5932 257.936 63.9752 251.372 63.9752C244.393 63.9752 239.971 59.0182 239.971 51.0274ZM259.304 51.0274C259.304 44.1272 256.21 41.1133 251.253 41.1133C246.832 41.1133 243.421 44.3057 243.421 51.0274C243.421 57.7492 246.733 60.9415 251.69 60.9415C256.647 60.9415 259.304 57.5311 259.304 51.0274Z" fill="#F7F7FA"/>
<path d="M294.001 63.5784H290.769L289.223 43.9089L282.858 63.5784H279.487L273.162 43.9883L271.576 63.5784H268.344L270.505 38.4165H274.451L281.252 60.049L287.894 38.4165H291.86L294.001 63.5784Z" fill="#F7F7FA"/>
</svg>
