<svg width="19" height="11" viewBox="0 0 19 11"  xmlns="http://www.w3.org/2000/svg">
<path fill-rule="evenodd" clip-rule="evenodd" d="M10.3071 10.6217C10.3071 10.6217 10.6294 10.5865 10.7946 10.4124C10.9457 10.2529 10.9405 9.95194 10.9405 9.95194C10.9405 9.95194 10.9204 8.54647 11.5852 8.33895C12.2404 8.13486 13.0816 9.69812 13.9745 10.2992C14.6489 10.7537 15.1608 10.6543 15.1608 10.6543L17.5466 10.6217C17.5466 10.6217 18.7941 10.5462 18.2027 9.58321C18.1537 9.50432 17.8576 8.87061 16.4293 7.56889C14.9328 6.20629 15.1337 6.42667 16.9351 4.06935C18.0323 2.63386 18.4709 1.75747 18.3337 1.38274C18.2035 1.02429 17.3963 1.11948 17.3963 1.11948L14.7109 1.13577C14.7109 1.13577 14.5117 1.10919 14.3641 1.1958C14.2199 1.28069 14.1265 1.47878 14.1265 1.47878C14.1265 1.47878 13.7019 2.58927 13.1349 3.53426C11.939 5.52714 11.4611 5.63261 11.2654 5.50913C10.8103 5.22014 10.9239 4.34976 10.9239 3.73149C10.9239 1.79949 11.2226 0.994281 10.3429 0.785904C10.0511 0.716445 9.83622 0.670996 9.0893 0.663278C8.13096 0.653846 7.32026 0.666708 6.86075 0.887091C6.55499 1.03373 6.31912 1.3613 6.46326 1.38017C6.6406 1.40332 7.04246 1.4865 7.25562 1.7712C7.5308 2.13907 7.52119 2.96401 7.52119 2.96401C7.52119 2.96401 7.67931 5.23815 7.15166 5.52027C6.78999 5.71407 6.29378 5.31876 5.22712 3.51025C4.68112 2.58412 4.26879 1.56024 4.26879 1.56024C4.26879 1.56024 4.18929 1.36902 4.04689 1.26612C3.87479 1.14177 3.63455 1.10319 3.63455 1.10319L1.08277 1.11948C1.08277 1.11948 0.699265 1.12977 0.558616 1.29356C0.433692 1.43848 0.549006 1.73947 0.549006 1.73947C0.549006 1.73947 2.54692 6.32806 4.80954 8.64079C6.88434 10.7606 9.23956 10.6217 9.23956 10.6217H10.3071Z" />
</svg>
